<?xml version="1.0" standalone="no"?>
<!DOCTYPE svg PUBLIC "-//W3C//DTD SVG 20010904//EN"
 "http://www.w3.org/TR/2001/REC-SVG-20010904/DTD/svg10.dtd">
<svg version="1.0" xmlns="http://www.w3.org/2000/svg"
 width="3000.000000pt" height="2000.000000pt" viewBox="0 0 3000.000000 2000.000000"
 preserveAspectRatio="xMidYMid meet">
<metadata>
Created by potrace 1.16, written by Peter Selinger 2001-2019
</metadata>
<g transform="translate(0.000000,2000.000000) scale(0.100000,-0.100000)"
fill="#000000" stroke="none">
<path d="M0 10000 l0 -10000 15000 0 15000 0 0 10000 0 10000 -15000 0 -15000
0 0 -10000z m6632 -159 c102 -26 200 -68 274 -117 126 -84 265 -239 321 -359
10 -22 23 -43 28 -47 6 -4 7 -8 3 -8 -6 0 8 -51 28 -100 4 -8 8 -28 10 -44 2
-15 8 -53 13 -83 20 -130 -2 -305 -58 -453 -11 -30 -21 -59 -22 -65 0 -5 -4
-12 -8 -15 -5 -3 -21 -25 -36 -50 -57 -92 -139 -183 -219 -242 -44 -32 -88
-65 -97 -71 -8 -7 -20 -13 -25 -14 -5 -2 -47 -18 -94 -37 -142 -58 -211 -66
-638 -66 -437 0 -529 10 -644 71 -21 11 -38 17 -38 12 0 -4 -4 -3 -8 2 -4 6
-32 26 -62 45 -30 18 -59 38 -65 44 -5 6 -29 28 -53 49 -23 20 -39 37 -36 37
3 0 -2 8 -12 17 -9 10 -33 42 -52 73 -20 30 -39 57 -44 58 -4 2 -6 7 -3 12 3
5 0 14 -7 22 -7 7 -13 18 -14 23 -1 26 -17 65 -27 65 -6 0 -8 2 -5 5 3 4 1 25
-4 48 -5 23 -12 51 -14 62 -5 27 -5 223 1 255 12 67 40 152 73 220 20 41 39
77 42 80 3 3 16 19 28 35 48 63 127 137 194 181 45 30 185 94 401 184 344 143
431 174 532 190 85 13 247 4 337 -19z m-2337 -377 c88 -22 229 -100 293 -161
30 -29 142 -187 142 -200 0 -8 7 -28 16 -44 8 -17 17 -38 18 -47 2 -10 7 -35
11 -57 12 -64 14 -85 14 -175 -1 -100 -5 -159 -12 -180 -3 -8 -13 -40 -23 -70
-36 -116 -112 -230 -199 -300 -31 -25 -62 -50 -68 -55 -19 -16 -148 -72 -197
-86 -78 -21 -199 -30 -245 -18 -16 4 -61 15 -100 25 -78 19 -150 50 -179 77
-11 9 -25 17 -31 17 -6 0 -18 8 -26 18 -9 9 -37 36 -62 59 -26 23 -47 46 -47
52 0 5 -11 18 -25 29 -13 11 -22 22 -19 25 6 6 -25 58 -41 69 -5 4 -9 11 -8
15 4 13 -20 83 -27 83 -4 0 -7 8 -7 18 1 9 -3 44 -7 76 -13 91 -9 303 7 346 9
26 20 75 19 83 -1 4 2 7 8 7 6 0 9 3 8 8 -2 7 22 60 34 77 5 6 28 38 53 71
153 209 435 305 700 238z"/>
</g>
</svg>
