<?xml version="1.0" standalone="no"?>
<!DOCTYPE svg PUBLIC "-//W3C//DTD SVG 20010904//EN"
 "http://www.w3.org/TR/2001/REC-SVG-20010904/DTD/svg10.dtd">
<svg version="1.0" xmlns="http://www.w3.org/2000/svg"
 width="616.000000pt" height="419.000000pt" viewBox="0 0 616.000000 419.000000"
 preserveAspectRatio="xMidYMid meet">
<metadata>
Created by potrace 1.16, written by Peter Selinger 2001-2019
</metadata>
<g transform="translate(0.000000,419.000000) scale(0.100000,-0.100000)"
fill="#000000" stroke="none">
<path d="M0 2095 l0 -2095 3080 0 3080 0 0 2095 0 2095 -3080 0 -3080 0 0
-2095z m3193 1024 c53 -12 97 -26 97 -31 0 -18 -52 -18 -128 2 l-82 20 -82
-20 c-76 -20 -128 -20 -128 -2 0 9 199 61 215 57 6 -1 54 -13 108 -26z m-48
-45 c36 -9 65 -20 65 -25 0 -15 -50 -22 -90 -11 -27 7 -53 7 -80 0 -41 -11
-90 -4 -90 11 0 7 88 36 123 40 4 1 37 -6 72 -15z m-399 -28 c24 -18 47 -11
-287 -94 -262 -65 -278 -68 -305 -54 -28 15 -22 17 261 88 160 39 295 72 301
73 5 0 19 -5 30 -13z m994 -60 c288 -71 294 -73 266 -88 -27 -14 -43 -11 -305
54 -334 83 -311 76 -287 94 11 8 22 14 25 14 3 -1 139 -34 301 -74z m-621 35
c12 -8 10 -12 -12 -22 -21 -10 -33 -10 -54 0 -22 10 -24 14 -12 22 7 5 25 9
39 9 14 0 32 -4 39 -9z m-293 -15 c10 -8 17 -16 14 -19 -3 -2 -131 -35 -285
-73 -227 -57 -285 -68 -307 -60 -16 5 -28 12 -28 16 0 5 546 146 576 149 5 1
19 -5 30 -13z m837 -62 c152 -38 277 -71 277 -74 0 -4 -12 -11 -27 -16 -23 -8
-81 3 -308 60 -154 38 -282 71 -285 73 -9 8 35 34 50 30 8 -2 140 -35 293 -73z
m-758 24 c14 -6 25 -14 25 -18 0 -4 -121 -40 -270 -80 -252 -69 -272 -73 -310
-61 -22 6 -40 15 -40 20 0 7 519 146 557 150 7 0 24 -4 38 -11z m663 -59 c155
-40 282 -76 282 -80 0 -5 -18 -14 -40 -20 -38 -12 -58 -8 -310 61 -149 40
-270 76 -270 80 0 6 36 27 50 29 3 1 132 -31 288 -70z m-1564 -45 c29 -11 17
-22 -36 -34 -72 -17 -72 -17 -47 -56 12 -19 20 -37 18 -38 -2 -2 -29 -6 -59
-10 l-55 -7 -28 51 c-16 28 -27 53 -25 55 6 5 173 43 195 44 12 1 28 -2 37 -5z
m2294 -16 c48 -11 89 -22 90 -24 2 -1 -9 -26 -25 -54 l-28 -51 -55 7 c-30 4
-57 8 -59 10 -2 1 6 19 18 38 25 39 25 39 -46 56 -52 12 -66 23 -40 33 24 10
59 7 145 -15z m-2191 -32 c10 -10 -3 -17 -62 -32 -44 -12 -60 -12 -71 -3 -22
18 -17 28 19 38 32 10 103 8 114 -3z m2056 3 c20 -5 37 -14 37 -18 0 -16 -29
-33 -47 -27 -10 2 -37 10 -60 16 -45 11 -55 25 -25 33 30 8 56 7 95 -4z
m-1984 -38 c19 -12 4 -18 -74 -25 -38 -4 -79 -10 -90 -13 -11 -3 -16 -2 -12 3
9 9 120 41 147 43 8 0 21 -3 29 -8z m1899 -7 c37 -9 72 -21 77 -27 7 -6 3 -7
-10 -4 -11 3 -51 9 -90 13 -78 7 -93 13 -74 25 19 12 20 11 97 -7z m-1633
-191 c94 -102 98 -108 74 -114 -13 -4 -40 -7 -60 -8 -33 -1 -41 6 -127 107
-85 99 -90 107 -69 114 67 19 78 14 182 -99z m1452 99 c20 -6 15 -15 -68 -114
-86 -102 -93 -108 -128 -107 -20 1 -47 4 -60 8 -24 6 -20 12 75 114 104 112
114 118 181 99z m-1627 -118 c45 -58 80 -108 76 -111 -3 -3 -36 -7 -73 -10
l-68 -4 -73 108 -73 108 33 6 c91 17 90 18 178 -97z m1793 98 l38 -7 -73 -108
-73 -108 -68 4 c-37 2 -70 7 -73 10 -4 3 31 53 76 111 88 114 87 114 173 98z
m-1993 -119 c48 -74 66 -110 57 -114 -7 -3 -38 -9 -69 -12 l-58 -6 -54 97
c-30 53 -56 104 -58 112 -3 14 12 18 100 28 7 1 44 -46 82 -105z m2203 87 c4
-4 -20 -54 -53 -113 l-61 -105 -57 5 c-31 3 -62 9 -69 12 -9 4 9 40 57 113
l69 107 53 -6 c29 -3 57 -9 61 -13z m-1667 -275 c-3 -10 -19 -15 -45 -15 -22
0 -43 -4 -46 -10 -4 -6 10 -10 34 -10 41 0 46 -5 35 -34 -5 -13 -27 -16 -134
-16 -125 0 -128 1 -144 25 -9 13 -16 28 -16 33 0 11 314 60 318 50 2 -5 1 -15
-2 -23z m832 8 l3 -23 -360 0 c-343 0 -361 1 -361 18 0 10 3 22 7 25 4 4 164
6 357 5 l351 -3 3 -22z m432 -30 c2 -2 -3 -16 -12 -31 -17 -27 -18 -27 -144
-30 -95 -2 -129 1 -136 10 -17 28 -8 38 33 38 24 0 38 4 34 10 -3 6 -23 10
-45 10 -35 0 -50 12 -50 39 0 7 310 -37 320 -46z m-1629 -53 l23 -40 152 0
152 0 -11 -35 -10 -35 -206 0 -206 0 -33 61 c-19 33 -32 63 -29 65 6 6 86 22
119 23 21 1 31 -7 49 -39z m1213 24 c3 -9 6 -20 6 -25 0 -5 -156 -9 -380 -9
-224 0 -380 4 -380 9 0 42 -6 41 380 41 326 0 369 -2 374 -16z m576 6 c30 -6
55 -12 58 -14 2 -3 -11 -32 -30 -65 l-33 -61 -206 0 -206 0 -10 35 -11 35 152
0 152 0 23 40 c24 44 30 45 111 30z m-560 -73 c0 -1 4 -17 9 -35 l10 -32 -405
0 c-392 0 -404 1 -404 19 0 53 -19 51 401 51 214 0 389 -1 389 -3z m-860 -397
c0 -57 -1 -60 -25 -60 -24 0 -25 3 -25 60 0 57 1 60 25 60 24 0 25 -3 25 -60z
m280 -15 c0 -68 -2 -75 -20 -75 -18 0 -20 7 -20 75 0 68 2 75 20 75 18 0 20
-7 20 -75z m60 0 c0 -68 -2 -75 -20 -75 -18 0 -20 7 -20 75 0 68 2 75 20 75
18 0 20 -7 20 -75z m60 0 c0 -68 -2 -75 -20 -75 -18 0 -20 7 -20 75 0 68 2 75
20 75 18 0 20 -7 20 -75z m60 0 c0 -68 -2 -75 -20 -75 -18 0 -20 7 -20 75 0
68 2 75 20 75 18 0 20 -7 20 -75z m60 0 c0 -68 -2 -75 -20 -75 -18 0 -20 7
-20 75 0 68 2 75 20 75 18 0 20 -7 20 -75z m60 0 c0 -68 -2 -75 -20 -75 -18 0
-20 7 -20 75 0 68 2 75 20 75 18 0 20 -7 20 -75z m60 0 c0 -68 -2 -75 -20 -75
-18 0 -20 7 -20 75 0 68 2 75 20 75 18 0 20 -7 20 -75z m60 0 c0 -68 -2 -75
-20 -75 -18 0 -20 7 -20 75 0 68 2 75 20 75 18 0 20 -7 20 -75z m290 15 c0
-57 -1 -60 -25 -60 -24 0 -25 3 -25 60 0 57 1 60 25 60 24 0 25 -3 25 -60z"/>
</g>
</svg>
