<?xml version="1.0" standalone="no"?>
<!DOCTYPE svg PUBLIC "-//W3C//DTD SVG 20010904//EN"
 "http://www.w3.org/TR/2001/REC-SVG-20010904/DTD/svg10.dtd">
<svg version="1.0" xmlns="http://www.w3.org/2000/svg"
 width="1500.000000pt" height="357.000000pt" viewBox="0 0 1500.000000 357.000000"
 preserveAspectRatio="xMidYMid meet">
<metadata>
Created by potrace 1.16, written by Peter Selinger 2001-2019
</metadata>
<g transform="translate(0.000000,357.000000) scale(0.100000,-0.100000)"
fill="#000000" stroke="none">
<path d="M5920 2517 l0 -134 80 -53 c44 -29 80 -56 80 -60 0 -4 -36 -31 -80
-60 l-80 -53 0 -559 0 -559 23 3 22 3 3 541 2 541 95 63 c59 39 95 69 95 80 0
11 -35 41 -95 80 l-94 62 -3 117 c-3 112 -4 116 -25 119 -23 3 -23 3 -23 -131z"/>
<path d="M1400 2395 c-61 -20 -115 -67 -148 -129 l-27 -51 -3 -507 -3 -508
130 0 131 0 2 463 3 462 22 3 c17 3 102 -84 417 -427 369 -400 401 -432 461
-462 124 -61 266 -35 350 64 64 74 65 86 65 619 l0 478 -130 0 -130 0 0 -457
c0 -252 -4 -464 -9 -472 -5 -8 -16 -11 -24 -8 -8 3 -200 206 -427 451 -327
353 -421 450 -458 468 -58 28 -158 34 -222 13z"/>
<path d="M2950 1937 c0 -551 -2 -539 94 -633 106 -104 58 -98 820 -102 770 -3
735 -7 828 88 77 79 102 156 96 298 -4 120 -33 188 -109 256 -84 75 -88 76
-543 76 -243 0 -416 4 -438 10 -50 14 -92 64 -84 102 3 15 13 40 23 54 35 54
31 54 708 54 l625 0 0 -470 0 -470 125 0 125 0 0 470 0 470 255 0 255 0 0 130
0 130 -1014 0 c-639 0 -1033 -4 -1066 -10 -163 -31 -268 -131 -300 -285 -38
-182 60 -341 253 -413 56 -21 73 -22 453 -22 434 0 432 0 468 -60 24 -42 20
-75 -15 -115 l-31 -35 -613 0 c-588 0 -614 1 -636 19 l-24 19 -3 451 -3 451
-124 0 -125 0 0 -463z"/>
<path d="M7280 2374 c-44 -37 -60 -75 -60 -140 0 -105 54 -164 150 -164 96 0
150 59 150 165 0 107 -54 165 -153 165 -45 0 -61 -5 -87 -26z m125 -40 c23 -9
45 -57 45 -99 0 -74 -44 -116 -105 -101 -49 12 -71 105 -40 166 19 37 57 50
100 34z"/>
<path d="M8925 2388 c-33 -18 -45 -40 -45 -83 0 -52 27 -79 95 -96 68 -16 85
-26 85 -50 0 -45 -95 -46 -115 -1 -14 31 -75 32 -75 1 0 -56 51 -89 139 -89
49 0 65 4 90 26 26 21 31 33 31 68 0 23 -7 51 -15 63 -14 21 -28 26 -122 52
-32 9 -43 17 -43 32 0 41 88 45 103 5 4 -11 19 -16 42 -16 33 0 36 2 30 23 -4
12 -20 34 -36 50 -25 23 -38 27 -87 27 -31 0 -66 -6 -77 -12z"/>
<path d="M10740 2374 c-44 -37 -60 -75 -60 -140 0 -105 54 -164 150 -164 96 0
150 59 150 165 0 107 -54 165 -153 165 -45 0 -61 -5 -87 -26z m125 -40 c23 -9
45 -57 45 -99 0 -74 -44 -116 -105 -101 -49 12 -71 105 -40 166 19 37 57 50
100 34z"/>
<path d="M6300 2235 l0 -155 35 0 35 0 0 98 0 97 58 -97 c56 -96 57 -98 94
-98 l38 0 0 155 0 155 -35 0 -34 0 -3 -95 -3 -95 -53 95 c-54 95 -54 95 -93
95 l-39 0 0 -155z"/>
<path d="M6632 2243 c-29 -81 -52 -151 -52 -155 0 -5 15 -8 34 -8 31 0 36 4
46 35 12 36 12 36 63 33 48 -3 52 -5 61 -35 8 -30 13 -33 47 -33 l38 0 -53
153 -54 152 -39 3 -39 3 -52 -148z m111 5 l16 -48 -36 0 c-32 0 -35 2 -29 25
9 36 26 78 30 74 2 -2 10 -25 19 -51z"/>
<path d="M6830 2360 c0 -29 1 -30 50 -30 l50 0 0 -125 0 -125 35 0 35 0 0 125
0 125 45 0 c43 0 45 1 45 30 l0 30 -130 0 -130 0 0 -30z"/>
<path d="M7120 2235 l0 -155 35 0 35 0 0 155 0 155 -35 0 -35 0 0 -155z"/>
<path d="M7560 2235 l0 -155 35 0 35 0 0 98 0 97 58 -97 c56 -96 57 -98 94
-98 l38 0 0 155 0 155 -35 0 -34 0 -3 -95 -3 -95 -53 95 c-54 95 -54 95 -93
95 l-39 0 0 -155z"/>
<path d="M7892 2243 c-29 -81 -52 -151 -52 -155 0 -5 15 -8 34 -8 31 0 36 4
46 35 12 36 12 36 63 33 48 -3 52 -5 61 -35 8 -30 13 -33 47 -33 l38 0 -53
153 -54 152 -39 3 -39 3 -52 -148z m111 5 l16 -48 -36 0 c-32 0 -35 2 -29 25
9 36 26 78 30 74 2 -2 10 -25 19 -51z"/>
<path d="M8150 2235 l0 -155 110 0 110 0 0 30 0 30 -75 0 -75 0 0 125 0 125
-35 0 -35 0 0 -155z"/>
<path d="M8460 2235 l0 -155 35 0 35 0 0 155 0 155 -35 0 -35 0 0 -155z"/>
<path d="M8580 2235 l0 -155 35 0 35 0 0 98 0 97 58 -97 c56 -96 57 -98 94
-98 l38 0 0 155 0 155 -35 0 -34 0 -3 -95 -3 -95 -53 95 c-54 95 -54 95 -93
95 l-39 0 0 -155z"/>
<path d="M9140 2360 c0 -29 1 -30 50 -30 l50 0 0 -125 0 -125 35 0 35 0 0 125
0 125 45 0 c43 0 45 1 45 30 l0 30 -130 0 -130 0 0 -30z"/>
<path d="M9420 2235 l0 -155 35 0 35 0 0 155 0 155 -35 0 -35 0 0 -155z"/>
<path d="M9510 2360 c0 -29 1 -30 50 -30 l50 0 0 -125 0 -125 35 0 35 0 0 125
0 125 45 0 c43 0 45 1 45 30 l0 30 -130 0 -130 0 0 -30z"/>
<path d="M9800 2256 l0 -134 31 -26 c25 -21 41 -26 85 -26 69 0 109 20 123 61
6 18 11 83 11 145 l0 114 -34 0 -34 0 -4 -120 c-2 -76 -7 -123 -15 -131 -17
-17 -73 -16 -84 2 -5 8 -9 67 -9 132 l0 117 -35 0 -35 0 0 -134z"/>
<path d="M10060 2360 c0 -29 1 -30 50 -30 l50 0 0 -125 0 -125 35 0 35 0 0
125 0 125 45 0 c43 0 45 1 45 30 l0 30 -130 0 -130 0 0 -30z"/>
<path d="M10350 2235 l0 -155 120 0 120 0 0 30 0 30 -85 0 -85 0 0 35 0 35 75
0 75 0 0 30 0 30 -75 0 -75 0 0 30 0 30 85 0 85 0 0 30 0 30 -120 0 -120 0 0
-155z"/>
<path d="M11020 2235 l0 -155 35 0 35 0 0 65 0 65 70 0 70 0 0 30 0 30 -70 0
-70 0 0 30 0 30 80 0 80 0 0 30 0 30 -115 0 -115 0 0 -155z"/>
<path d="M6345 1948 c-33 -18 -45 -40 -45 -83 0 -52 27 -79 95 -96 68 -16 85
-26 85 -50 0 -45 -95 -46 -115 -1 -14 31 -75 32 -75 1 0 -56 51 -89 139 -89
49 0 65 4 90 26 26 21 31 33 31 68 0 23 -7 51 -15 63 -14 21 -28 26 -122 52
-32 9 -43 17 -43 32 0 41 88 45 103 5 4 -11 19 -16 42 -16 33 0 36 2 30 23 -4
12 -20 34 -36 50 -25 23 -38 27 -87 27 -31 0 -66 -6 -77 -12z"/>
<path d="M8595 1948 c-33 -18 -45 -40 -45 -83 0 -52 27 -79 95 -96 68 -16 85
-26 85 -50 0 -45 -95 -46 -115 -1 -14 31 -75 32 -75 1 0 -56 51 -89 139 -89
49 0 65 4 90 26 26 21 31 33 31 68 0 23 -7 51 -15 63 -14 21 -28 26 -122 52
-32 9 -43 17 -43 32 0 41 88 45 103 5 4 -11 19 -16 42 -16 33 0 36 2 30 23 -4
12 -20 34 -36 50 -25 23 -38 27 -87 27 -31 0 -66 -6 -77 -12z"/>
<path d="M10480 1953 c-54 -20 -90 -83 -90 -158 0 -62 14 -97 54 -135 21 -19
40 -25 91 -28 63 -4 66 -3 100 31 19 19 35 44 35 56 0 17 -6 21 -34 21 -26 0
-36 -5 -41 -20 -7 -23 -44 -35 -80 -26 -49 12 -71 105 -40 165 24 48 82 56
113 16 14 -17 30 -25 51 -25 43 0 41 32 -3 76 -31 31 -39 34 -87 33 -30 0 -61
-3 -69 -6z"/>
<path d="M11360 1934 c-44 -37 -60 -75 -60 -140 0 -105 54 -164 150 -164 96 0
150 59 150 165 0 107 -54 165 -153 165 -45 0 -61 -5 -87 -26z m125 -40 c23 -9
45 -57 45 -99 0 -74 -44 -116 -105 -101 -49 12 -71 105 -40 166 19 37 57 50
100 34z"/>
<path d="M11920 1934 c-44 -37 -60 -75 -60 -140 0 -105 54 -164 150 -164 96 0
150 59 150 165 0 107 -54 165 -153 165 -45 0 -61 -5 -87 -26z m125 -40 c23 -9
45 -57 45 -99 0 -74 -44 -116 -105 -101 -49 12 -71 105 -40 166 19 37 57 50
100 34z"/>
<path d="M12248 1943 c-91 -57 -90 -250 2 -298 38 -20 119 -19 148 1 12 8 22
10 22 5 0 -6 11 -11 25 -11 25 0 25 1 25 85 l0 85 -65 0 c-63 0 -65 -1 -65
-25 0 -22 4 -25 35 -25 44 0 46 -19 4 -54 -35 -30 -41 -31 -78 -12 -49 26 -67
106 -36 165 25 49 91 57 123 16 20 -26 82 -36 82 -15 0 25 -32 71 -60 85 -39
20 -128 19 -162 -2z"/>
<path d="M6560 1920 c0 -29 1 -30 50 -30 l50 0 0 -125 0 -125 35 0 35 0 0 125
0 125 45 0 c43 0 45 1 45 30 l0 30 -130 0 -130 0 0 -30z"/>
<path d="M6842 1803 c-29 -81 -52 -151 -52 -155 0 -5 15 -8 34 -8 31 0 36 4
46 35 12 36 12 36 63 33 48 -3 52 -5 61 -35 8 -30 13 -33 47 -33 l38 0 -53
153 -54 152 -39 3 -39 3 -52 -148z m111 5 l16 -48 -36 0 c-32 0 -35 2 -29 25
9 36 26 78 30 74 2 -2 10 -25 19 -51z"/>
<path d="M7100 1795 l0 -155 35 0 35 0 0 98 0 97 58 -97 c56 -96 57 -98 94
-98 l38 0 0 155 0 155 -35 0 -34 0 -3 -95 -3 -95 -53 95 c-54 95 -54 95 -93
95 l-39 0 0 -155z"/>
<path d="M7400 1795 l0 -155 88 0 c68 0 94 4 118 19 62 38 81 156 38 230 -28
48 -63 61 -158 61 l-86 0 0 -155z m160 85 c24 -13 43 -79 34 -117 -11 -46 -32
-63 -81 -63 l-43 0 0 95 0 95 36 0 c19 0 44 -5 54 -10z"/>
<path d="M7712 1803 c-29 -81 -52 -151 -52 -155 0 -5 15 -8 34 -8 31 0 36 4
46 35 12 36 12 36 63 33 48 -3 52 -5 61 -35 8 -30 13 -33 47 -33 l38 0 -53
153 -54 152 -39 3 -39 3 -52 -148z m111 5 l16 -48 -36 0 c-32 0 -35 2 -29 25
9 36 26 78 30 74 2 -2 10 -25 19 -51z"/>
<path d="M7970 1795 l0 -155 35 0 35 0 0 66 0 67 42 -6 c51 -7 68 -27 68 -84
l0 -43 38 0 39 0 -9 63 c-6 34 -16 68 -23 76 -11 11 -10 16 6 32 30 30 26 92
-7 118 -23 18 -41 21 -125 21 l-99 0 0 -155z m161 95 c10 -6 19 -19 19 -30 0
-25 -29 -40 -74 -40 -35 0 -36 1 -36 40 0 39 1 40 36 40 19 0 44 -5 55 -10z"/>
<path d="M8260 1795 l0 -155 88 0 c68 0 94 4 118 19 62 38 81 156 38 230 -28
48 -63 61 -158 61 l-86 0 0 -155z m160 85 c24 -13 43 -79 34 -117 -11 -46 -32
-63 -81 -63 l-43 0 0 95 0 95 36 0 c19 0 44 -5 54 -10z"/>
<path d="M8942 1803 c-29 -81 -52 -151 -52 -155 0 -5 15 -8 34 -8 31 0 36 4
46 35 12 36 12 36 63 33 48 -3 52 -5 61 -35 8 -30 13 -33 47 -33 l38 0 -53
153 -54 152 -39 3 -39 3 -52 -148z m111 5 l16 -48 -36 0 c-32 0 -35 2 -29 25
9 36 26 78 30 74 2 -2 10 -25 19 -51z"/>
<path d="M9200 1795 l0 -155 35 0 35 0 0 98 0 97 58 -97 c56 -96 57 -98 94
-98 l38 0 0 155 0 155 -35 0 -34 0 -3 -95 -3 -95 -53 95 c-54 95 -54 95 -93
95 l-39 0 0 -155z"/>
<path d="M9500 1795 l0 -155 88 0 c68 0 94 4 118 19 62 38 81 156 38 230 -28
48 -63 61 -158 61 l-86 0 0 -155z m160 85 c24 -13 43 -79 34 -117 -11 -46 -32
-63 -81 -63 l-43 0 0 95 0 95 36 0 c19 0 44 -5 54 -10z"/>
<path d="M9850 1920 c0 -29 1 -30 50 -30 l50 0 0 -125 0 -125 35 0 35 0 0 125
0 125 45 0 c43 0 45 1 45 30 l0 30 -130 0 -130 0 0 -30z"/>
<path d="M10130 1795 l0 -155 120 0 120 0 0 30 0 30 -85 0 -85 0 0 35 0 35 75
0 75 0 0 30 0 30 -75 0 -75 0 0 30 0 30 85 0 85 0 0 30 0 30 -120 0 -120 0 0
-155z"/>
<path d="M10700 1795 l0 -155 35 0 35 0 0 65 0 65 60 0 60 0 0 -65 0 -65 35 0
35 0 0 155 0 155 -35 0 -35 0 0 -60 0 -60 -60 0 -60 0 0 60 0 60 -35 0 -35 0
0 -155z"/>
<path d="M11000 1795 l0 -155 35 0 35 0 0 98 0 97 58 -97 c56 -96 57 -98 94
-98 l38 0 0 155 0 155 -35 0 -34 0 -3 -95 -3 -95 -53 95 c-54 95 -54 95 -93
95 l-39 0 0 -155z"/>
<path d="M11630 1795 l0 -155 110 0 110 0 0 30 0 30 -75 0 -75 0 0 125 0 125
-35 0 -35 0 0 -155z"/>
<path d="M12519 1856 c46 -83 51 -100 51 -155 l0 -61 35 0 35 0 0 58 c0 37 6
67 18 87 10 17 35 60 56 98 l37 67 -41 0 c-39 0 -41 -2 -67 -55 -15 -30 -30
-55 -33 -55 -3 0 -18 25 -33 55 -26 53 -28 55 -68 55 l-40 0 50 -94z"/>
<path d="M6300 1356 c0 -112 1 -115 26 -135 30 -24 97 -28 138 -10 35 16 46
57 46 165 0 87 -1 94 -20 94 -19 0 -20 -7 -20 -95 0 -88 -2 -98 -25 -120 -28
-29 -51 -31 -83 -9 -20 14 -22 23 -22 120 0 97 -1 104 -20 104 -19 0 -20 -7
-20 -114z"/>
<path d="M6662 1454 c-16 -11 -22 -25 -22 -53 0 -46 9 -54 80 -75 72 -21 82
-29 78 -57 -7 -52 -100 -50 -126 4 -7 15 -21 27 -32 27 -16 0 -17 -4 -9 -32
14 -50 32 -62 103 -66 79 -5 106 15 106 78 0 47 -20 64 -98 80 -60 13 -82 39
-56 64 27 28 104 14 104 -18 0 -8 10 -16 23 -18 20 -4 23 -1 19 19 -11 56
-116 85 -170 47z"/>
<path d="M7030 1335 l0 -135 78 0 c82 0 108 12 131 57 16 31 14 129 -4 163
-21 42 -43 50 -129 50 l-76 0 0 -135z m162 75 c18 -22 25 -100 12 -135 -9 -23
-57 -45 -99 -45 l-35 0 0 106 0 107 52 -5 c38 -4 57 -12 70 -28z"/>
<path d="M7300 1335 l0 -135 100 0 c82 0 100 3 100 15 0 12 -16 15 -80 15
l-80 0 0 45 0 45 70 0 c56 0 70 3 70 15 0 12 -14 15 -70 15 l-70 0 0 45 0 45
80 0 c64 0 80 3 80 15 0 12 -18 15 -100 15 l-100 0 0 -135z"/>
<path d="M7540 1335 c0 -128 1 -135 20 -135 18 0 20 7 20 55 l0 55 60 0 c75 0
100 20 100 80 0 64 -24 80 -120 80 l-80 0 0 -135z m141 95 c12 -7 19 -21 19
-41 0 -34 -27 -49 -86 -49 l-34 0 0 50 0 50 41 0 c22 0 49 -5 60 -10z"/>
<path d="M7829 1443 c-6 -16 -28 -76 -50 -135 l-38 -108 23 0 c18 0 25 8 35
41 l12 40 51 -3 c49 -3 52 -5 63 -38 8 -24 19 -36 33 -38 12 -2 22 0 22 3 0 4
-21 65 -46 136 -42 116 -49 129 -71 129 -16 0 -27 -8 -34 -27z m65 -110 c7
-21 4 -23 -32 -23 l-40 0 21 56 21 57 11 -34 c7 -19 15 -44 19 -56z"/>
<path d="M8010 1335 c0 -128 1 -135 20 -135 18 0 20 7 20 55 l0 55 49 0 c58 0
81 -22 81 -77 0 -28 4 -33 24 -33 22 0 23 2 15 51 -4 28 -13 57 -19 64 -7 9
-6 16 5 25 9 7 15 29 15 55 0 64 -19 75 -123 75 l-87 0 0 -135z m151 95 c12
-7 19 -21 19 -41 0 -34 -27 -49 -91 -49 l-39 0 0 50 0 50 46 0 c25 0 54 -5 65
-10z"/>
<path d="M8250 1455 c0 -11 12 -15 45 -15 l45 0 0 -120 c0 -113 1 -120 20
-120 19 0 20 7 20 120 l0 120 45 0 c33 0 45 4 45 15 0 12 -19 15 -110 15 -91
0 -110 -3 -110 -15z"/>
<path d="M8510 1335 c0 -112 3 -135 15 -135 11 0 15 20 17 98 l3 97 35 -95
c28 -76 39 -95 55 -95 16 0 27 19 55 95 l35 95 3 -97 c2 -90 4 -98 22 -98 19
0 20 7 20 135 l0 135 -29 0 c-27 0 -30 -5 -66 -105 -21 -58 -39 -105 -40 -103
-1 2 -19 49 -40 106 -33 90 -40 102 -61 102 l-24 0 0 -135z"/>
<path d="M8830 1335 l0 -135 100 0 c82 0 100 3 100 15 0 12 -16 15 -80 15
l-80 0 0 45 0 45 70 0 c56 0 70 3 70 15 0 12 -14 15 -70 15 l-70 0 0 45 0 45
80 0 c64 0 80 3 80 15 0 12 -18 15 -100 15 l-100 0 0 -135z"/>
<path d="M9080 1336 c0 -113 3 -136 15 -136 11 0 15 20 17 101 l3 102 63 -102
c45 -72 69 -101 83 -101 18 0 19 8 19 135 0 112 -3 135 -15 135 -11 0 -15 -20
-17 -102 l-3 -101 -61 99 c-43 70 -66 100 -82 102 -22 3 -22 2 -22 -132z"/>
<path d="M9310 1455 c0 -11 12 -15 45 -15 l45 0 0 -120 c0 -113 1 -120 20
-120 19 0 20 7 20 120 l0 120 45 0 c33 0 45 4 45 15 0 12 -19 15 -110 15 -91
0 -110 -3 -110 -15z"/>
<path d="M9671 1444 c-61 -51 -64 -153 -5 -211 28 -29 39 -33 83 -33 94 0 141
45 141 135 0 90 -47 135 -139 135 -39 0 -56 -6 -80 -26z m157 -40 c31 -36 30
-103 -2 -141 -33 -38 -95 -39 -133 -1 -49 49 -31 142 32 169 31 13 78 1 103
-27z"/>
<path d="M9940 1335 c0 -128 1 -135 20 -135 18 0 20 7 20 65 l0 65 65 0 c51 0
65 3 65 15 0 12 -14 15 -65 15 l-65 0 0 40 0 40 75 0 c60 0 75 3 75 15 0 12
-17 15 -95 15 l-95 0 0 -135z"/>
<path d="M10271 1444 c-61 -51 -64 -153 -5 -211 27 -28 39 -33 78 -33 60 0 92
16 111 55 20 43 19 45 -9 45 -17 0 -26 -7 -30 -24 -7 -30 -54 -50 -87 -38 -42
16 -62 48 -62 97 0 49 20 81 62 97 31 11 78 -7 86 -33 7 -22 45 -26 45 -5 0
47 -44 76 -114 76 -33 0 -52 -6 -75 -26z"/>
<path d="M10541 1444 c-61 -51 -64 -153 -5 -211 28 -29 39 -33 83 -33 94 0
141 45 141 135 0 90 -47 135 -139 135 -39 0 -56 -6 -80 -26z m157 -40 c31 -36
30 -103 -2 -141 -33 -38 -95 -39 -133 -1 -49 49 -31 142 32 169 31 13 78 1
103 -27z"/>
<path d="M10820 1335 c0 -112 3 -135 15 -135 11 0 15 20 17 98 l3 97 35 -95
c28 -76 39 -95 55 -95 16 0 27 19 55 95 l35 95 3 -97 c2 -90 4 -98 22 -98 19
0 20 7 20 135 l0 135 -29 0 c-27 0 -30 -5 -66 -105 -21 -58 -39 -105 -40 -103
-1 2 -19 49 -40 106 -33 90 -40 102 -61 102 l-24 0 0 -135z"/>
<path d="M11140 1335 c0 -112 3 -135 15 -135 11 0 15 20 17 98 l3 97 35 -95
c28 -76 39 -95 55 -95 16 0 27 19 55 95 l35 95 3 -97 c2 -90 4 -98 22 -98 19
0 20 7 20 135 l0 135 -29 0 c-27 0 -30 -5 -66 -105 -21 -58 -39 -105 -40 -103
-1 2 -19 49 -40 106 -33 90 -40 102 -61 102 l-24 0 0 -135z"/>
<path d="M11460 1335 l0 -135 100 0 c82 0 100 3 100 15 0 12 -16 15 -80 15
l-80 0 0 45 0 45 70 0 c56 0 70 3 70 15 0 12 -14 15 -70 15 l-70 0 0 45 0 45
80 0 c64 0 80 3 80 15 0 12 -18 15 -100 15 l-100 0 0 -135z"/>
<path d="M11700 1335 c0 -128 1 -135 20 -135 18 0 20 7 20 55 l0 55 49 0 c58
0 81 -22 81 -77 0 -28 4 -33 24 -33 22 0 23 2 15 51 -4 28 -13 57 -19 64 -7 9
-6 16 5 25 9 7 15 29 15 55 0 64 -19 75 -123 75 l-87 0 0 -135z m151 95 c12
-7 19 -21 19 -41 0 -34 -27 -49 -91 -49 l-39 0 0 50 0 50 46 0 c25 0 54 -5 65
-10z"/>
<path d="M11991 1444 c-61 -51 -64 -153 -5 -211 27 -28 39 -33 78 -33 60 0 92
16 111 55 20 43 19 45 -9 45 -17 0 -26 -7 -30 -24 -7 -30 -54 -50 -87 -38 -42
16 -62 48 -62 97 0 49 20 81 62 97 31 11 78 -7 86 -33 7 -22 45 -26 45 -5 0
47 -44 76 -114 76 -33 0 -52 -6 -75 -26z"/>
<path d="M12230 1335 l0 -135 100 0 c82 0 100 3 100 15 0 12 -16 15 -80 15
l-80 0 0 45 0 45 70 0 c56 0 70 3 70 15 0 12 -14 15 -70 15 l-70 0 0 45 0 45
80 0 c64 0 80 3 80 15 0 12 -18 15 -100 15 l-100 0 0 -135z"/>
<path d="M6550 1220 c0 -13 7 -20 20 -20 13 0 20 7 20 20 0 13 -7 20 -20 20
-13 0 -20 -7 -20 -20z"/>
<path d="M6880 1220 c0 -13 7 -20 20 -20 13 0 20 7 20 20 0 13 -7 20 -20 20
-13 0 -20 -7 -20 -20z"/>
</g>
</svg>
