<?xml version="1.0" standalone="no"?>
<!DOCTYPE svg PUBLIC "-//W3C//DTD SVG 20010904//EN"
 "http://www.w3.org/TR/2001/REC-SVG-20010904/DTD/svg10.dtd">
<svg version="1.0" xmlns="http://www.w3.org/2000/svg"
 width="3000.000000pt" height="2000.000000pt" viewBox="0 0 3000.000000 2000.000000"
 preserveAspectRatio="xMidYMid meet">
<metadata>
Created by potrace 1.16, written by Peter Selinger 2001-2019
</metadata>
<g transform="translate(0.000000,2000.000000) scale(0.100000,-0.100000)"
fill="#000000" stroke="none">
<path d="M0 10000 l0 -10000 15000 0 15000 0 0 10000 0 10000 -15000 0 -15000
0 0 -10000z m6799 1305 c176 -188 307 -404 382 -628 32 -96 35 -100 95 -147
214 -168 358 -389 430 -656 35 -133 45 -373 20 -509 -83 -450 -394 -807 -828
-949 -156 -51 -232 -56 -794 -56 l-519 0 3 375 2 375 478 0 c376 0 491 3 545
15 214 45 367 232 367 450 0 223 -181 429 -397 451 l-63 7 0 71 c0 255 -85
486 -243 661 -33 37 -72 71 -85 76 -25 10 -16 20 243 279 215 215 272 267 285
260 9 -5 45 -39 79 -75z m-1920 -540 c241 -36 461 -151 649 -340 56 -57 102
-107 102 -112 0 -4 -121 -129 -268 -276 -202 -202 -272 -266 -285 -261 -9 3
-15 10 -12 14 13 22 -135 175 -181 186 -13 3 -24 10 -24 14 0 16 -118 44 -185
44 -87 0 -136 -9 -200 -38 -56 -26 -153 -99 -162 -123 -3 -8 -16 -26 -29 -40
-29 -31 -63 -119 -75 -195 -19 -117 26 -265 111 -360 35 -41 110 -99 143 -111
12 -5 -521 -547 -537 -547 -9 0 -148 119 -154 132 -2 3 -12 17 -23 30 -11 12
-29 33 -39 45 -36 42 -128 203 -160 280 -35 83 -80 249 -80 293 0 14 -3 29 -6
33 -12 11 -3 271 12 356 31 176 112 365 217 507 66 89 190 211 264 260 152
101 343 181 495 209 100 18 307 18 427 0z"/>
</g>
</svg>
