<?xml version="1.0" standalone="no"?>
<!DOCTYPE svg PUBLIC "-//W3C//DTD SVG 20010904//EN"
 "http://www.w3.org/TR/2001/REC-SVG-20010904/DTD/svg10.dtd">
<svg version="1.0" xmlns="http://www.w3.org/2000/svg"
 width="2560.000000pt" height="422.000000pt" viewBox="0 0 2560.000000 422.000000"
 preserveAspectRatio="xMidYMid meet">
<metadata>
Created by potrace 1.16, written by Peter Selinger 2001-2019
</metadata>
<g transform="translate(0.000000,422.000000) scale(0.100000,-0.100000)"
fill="#000000" stroke="none">
<path d="M0 2110 l0 -2110 12800 0 12800 0 0 550 0 550 -120 0 -120 0 0 83 0
83 -59 -57 c-208 -203 -551 -200 -770 7 -162 152 -233 343 -218 583 8 112 23
176 66 266 43 93 97 164 171 223 32 25 21 10 -37 -50 -62 -66 -91 -106 -121
-169 -56 -117 -67 -172 -67 -329 0 -122 3 -144 29 -224 85 -260 321 -446 566
-446 136 0 282 60 378 157 35 35 66 63 68 63 2 0 4 -40 4 -90 l0 -90 110 0
110 0 0 618 c0 339 3 1039 7 1555 l6 937 -12801 0 -12802 0 0 -2110z m2394
2044 c612 -84 1160 -453 1487 -1002 356 -597 380 -1361 64 -1992 -188 -375
-473 -668 -863 -890 -90 -51 -134 -62 -76 -19 60 45 232 227 283 299 423 602
353 1397 -168 1910 -170 167 -352 278 -581 354 -203 68 -474 90 -625 52 -362
-93 -605 -401 -605 -766 0 -208 70 -385 214 -538 27 -29 47 -54 45 -56 -9 -9
-159 68 -254 131 -131 87 -289 245 -378 379 -369 556 -298 1284 172 1755 229
228 507 362 826 399 100 11 316 3 459 -16z m-1944 -2055 c0 -836 -3 -1260 -10
-1257 -5 2 -10 8 -11 13 0 6 -7 14 -15 18 -8 4 -14 14 -14 22 0 7 -3 15 -7 17
-46 20 -209 335 -273 526 -177 528 -133 1115 121 1613 29 56 149 242 163 251
6 5 7 8 1 8 -8 0 33 47 43 49 1 1 2 -566 2 -1260z m5868 1164 c-21 -2 -55 -2
-75 0 -21 2 -4 4 37 4 41 0 58 -2 38 -4z m-175 -10 c-7 -2 -19 -2 -25 0 -7 3
-2 5 12 5 14 0 19 -2 13 -5z m304 1 c-3 -3 -12 -4 -19 -1 -8 3 -5 6 6 6 11 1
17 -2 13 -5z m-370 -10 c-3 -3 -12 -4 -19 -1 -8 3 -5 6 6 6 11 1 17 -2 13 -5z
m-77 -14 c0 -5 -8 -10 -17 -10 -15 0 -16 2 -3 10 19 12 20 12 20 0z m37 4 c-3
-3 -12 -4 -19 -1 -8 3 -5 6 6 6 11 1 17 -2 13 -5z m-167 -50 c-59 -26 -80 -34
-80 -28 0 7 82 43 100 43 8 0 -1 -7 -20 -15z m6230 -1029 l0 -1035 150 0 c93
0 150 -4 150 -10 0 -6 -60 -10 -160 -10 l-160 0 0 1045 c0 690 3 1045 10 1045
7 0 10 -352 10 -1035z m-6320 991 c0 -2 -26 -19 -57 -36 -321 -181 -532 -523
-550 -891 -7 -144 7 -251 53 -389 60 -179 142 -308 286 -446 276 -264 647
-366 1031 -284 194 42 345 126 492 275 98 99 140 162 192 288 19 45 32 69 28
52 -13 -62 -94 -213 -152 -285 -210 -260 -505 -383 -878 -367 -260 11 -492
103 -692 275 -186 161 -324 408 -363 654 -20 121 -8 341 24 456 50 180 139
334 275 475 92 95 311 253 311 223z m665 -195 c130 -27 264 -92 348 -170 l27
-25 105 104 c57 57 107 102 109 99 3 -3 -43 -53 -103 -113 l-108 -107 -72 54
c-150 113 -287 159 -471 159 -191 0 -345 -54 -493 -171 -85 -68 -144 -142
-203 -254 -47 -89 -56 -97 -24 -21 54 125 191 279 314 353 164 98 376 132 571
92z m8468 -1838 c390 5 422 8 561 57 272 94 480 332 546 625 10 44 19 71 19
59 2 -39 -39 -179 -74 -251 -45 -96 -85 -154 -164 -237 -112 -116 -248 -195
-413 -238 -77 -20 -113 -22 -470 -25 l-388 -4 2 938 3 938 2 -933 3 -934 373
5z m285 1850 c-15 -2 -42 -2 -60 0 -18 2 -6 4 27 4 33 0 48 -2 33 -4z m5367
-1853 l115 0 3 658 2 657 3 -662 2 -663 -125 0 -125 0 2 938 3 937 2 -932 3
-933 115 0z m139 1844 c3 -8 2 -12 -4 -9 -6 3 -10 10 -10 16 0 14 7 11 14 -7z
m1272 -26 c-14 -24 -160 -279 -324 -568 -165 -288 -304 -526 -310 -528 -5 -1
-12 5 -16 14 -5 13 -3 14 6 6 10 -8 77 102 291 477 352 615 367 641 373 641 3
0 -6 -19 -20 -42z m264 -893 l0 -935 -126 0 -126 0 4 704 c2 508 0 699 -8 687
-6 -9 -135 -235 -288 -503 l-277 -488 -78 0 -79 0 -288 506 c-237 415 -290
502 -295 482 -6 -20 -7 -18 -8 10 -1 23 3 32 12 30 6 -3 141 -231 299 -509
l287 -504 72 0 72 0 288 505 c158 277 291 506 296 507 4 2 6 -316 5 -707 l-4
-710 116 0 116 0 0 930 c0 512 2 930 5 930 3 0 5 -421 5 -935z m297 896 c-50
-55 -58 -113 -26 -178 32 -64 77 -93 144 -93 90 0 164 70 167 159 1 41 2 42 5
11 17 -141 -148 -237 -270 -156 -38 25 -77 97 -77 143 0 46 22 95 56 127 42
38 42 32 1 -13z m2825 -368 c2 -200 1 -363 -2 -363 -3 0 -6 174 -7 388 0 213
1 376 3 362 2 -14 5 -188 6 -387z m-10065 391 c-3 -3 -12 -4 -19 -1 -8 3 -5 6
6 6 11 1 17 -2 13 -5z m48 -12 c-3 -3 -11 0 -18 7 -9 10 -8 11 6 5 10 -3 15
-9 12 -12z m7475 -59 c0 -19 0 -19 -28 32 l-23 40 26 -28 c14 -15 25 -35 25
-44z m-2080 7 c6 -11 8 -20 6 -20 -3 0 -10 9 -16 20 -6 11 -8 20 -6 20 3 0 10
-9 16 -20z m-20123 -72 c-3 -8 -6 -5 -6 6 -1 11 2 17 5 13 3 -3 4 -12 1 -19z
m20171 -14 c-4 -3 -12 5 -18 18 -12 22 -12 22 6 6 10 -10 15 -20 12 -24z m32
-54 c6 -11 8 -20 6 -20 -3 0 -10 9 -16 20 -6 11 -8 20 -6 20 3 0 10 -9 16 -20z
m-5033 -28 c44 -44 67 -72 61 -72 -2 0 -28 25 -58 55 -30 30 -51 55 -48 55 4
0 24 -17 45 -38z m-489 2 c125 -25 234 -84 322 -173 123 -124 176 -253 187
-457 15 -283 -73 -501 -253 -630 -60 -43 -164 -95 -120 -59 11 8 23 15 28 15
21 0 120 75 170 129 68 73 120 174 145 278 24 104 24 319 -1 418 -56 227 -221
395 -451 461 -47 13 -114 18 -302 21 l-243 5 0 -696 0 -696 188 -3 187 -3
-190 1 -190 0 -3 703 -2 702 225 0 c166 0 246 -4 303 -16z m5562 -44 c6 -11 8
-20 6 -20 -3 0 -10 9 -16 20 -6 11 -8 20 -6 20 3 0 10 -9 16 -20z m-4980 -62
c0 -6 -6 -5 -15 2 -8 7 -15 14 -15 16 0 2 7 1 15 -2 8 -4 15 -11 15 -16z
m5020 -8 c6 -11 8 -20 6 -20 -3 0 -10 9 -16 20 -6 11 -8 20 -6 20 3 0 10 -9
16 -20z m-5000 -20 c0 -5 -2 -10 -4 -10 -3 0 -8 5 -11 10 -3 6 -1 10 4 10 6 0
11 -4 11 -10z m20 -30 c0 -5 -2 -10 -4 -10 -3 0 -8 5 -11 10 -3 6 -1 10 4 10
6 0 11 -4 11 -10z m5020 -20 c6 -11 8 -20 6 -20 -3 0 -10 9 -16 20 -6 11 -8
20 -6 20 3 0 10 -9 16 -20z m-4980 -57 c29 -65 19 -63 -13 3 -15 31 -23 53
-18 49 6 -3 20 -27 31 -52z m5020 -13 c6 -11 8 -20 6 -20 -3 0 -10 9 -16 20
-6 11 -8 20 -6 20 3 0 10 -9 16 -20z m-12937 3 c-7 -2 -19 -2 -25 0 -7 3 -2 5
12 5 14 0 19 -2 13 -5z m194 1 c-3 -3 -12 -4 -19 -1 -8 3 -5 6 6 6 11 1 17 -2
13 -5z m1356 -1 c-7 -2 -19 -2 -25 0 -7 3 -2 5 12 5 14 0 19 -2 13 -5z m194 1
c-3 -3 -12 -4 -19 -1 -8 3 -5 6 6 6 11 1 17 -2 13 -5z m1336 -1 c-7 -2 -19 -2
-25 0 -7 3 -2 5 12 5 14 0 19 -2 13 -5z m2020 0 c-7 -2 -19 -2 -25 0 -7 3 -2
5 12 5 14 0 19 -2 13 -5z m-5238 -23 c-3 -5 -12 -10 -18 -10 -7 0 -6 4 3 10
19 12 23 12 15 0z m1535 -10 c-20 -13 -33 -13 -25 0 3 6 14 10 23 10 15 0 15
-2 2 -10z m1530 -4 c0 -2 -15 -9 -32 -15 -30 -10 -31 -9 -14 4 18 14 46 20 46
11z m620 -56 c0 -33 -4 -60 -10 -60 -6 0 -10 27 -10 60 0 33 4 60 10 60 6 0
10 -27 10 -60z m287 -917 c-1 -181 -2 -33 -2 327 0 360 1 508 2 328 2 -181 2
-475 0 -655z m1046 943 c-167 -90 -268 -210 -329 -391 -39 -115 -45 -295 -15
-414 43 -170 145 -318 284 -413 206 -140 473 -155 707 -41 80 39 109 61 183
135 54 53 86 92 81 99 -4 8 -3 9 4 5 19 -12 -3 -44 -89 -128 -93 -90 -213
-156 -335 -183 -105 -24 -291 -16 -384 15 -239 81 -409 266 -466 507 -23 99
-15 323 16 413 64 189 198 347 351 414 60 26 56 16 -8 -18z m-5083 14 c-8 -5
-19 -10 -25 -10 -5 0 -3 5 5 10 8 5 20 10 25 10 6 0 3 -5 -5 -10z m1505 -22
c-171 -88 -300 -249 -351 -438 -24 -89 -24 -281 0 -369 55 -202 181 -354 371
-446 421 -205 905 31 1008 490 4 18 5 18 6 -2 2 -33 -51 -174 -90 -239 -46
-78 -159 -190 -239 -237 -36 -21 -101 -50 -145 -64 -73 -25 -94 -27 -230 -27
-136 0 -157 2 -230 27 -112 37 -198 90 -280 172 -128 129 -193 277 -202 465
-11 211 54 392 189 534 70 73 204 166 238 165 8 0 -12 -14 -45 -31z m15593 25
c-10 -2 -26 -2 -35 0 -10 3 -2 5 17 5 19 0 27 -2 18 -5z m-8263 -13 c-3 -5
-12 -10 -18 -10 -7 0 -6 4 3 10 19 12 23 12 15 0z m52 4 c-3 -3 -12 -4 -19 -1
-8 3 -5 6 6 6 11 1 17 -2 13 -5z m190 0 c-3 -3 -12 -4 -19 -1 -8 3 -5 6 6 6
11 1 17 -2 13 -5z m1108 -4 c-3 -5 -12 -10 -18 -10 -7 0 -6 4 3 10 19 12 23
12 15 0z m52 4 c-3 -3 -12 -4 -19 -1 -8 3 -5 6 6 6 11 1 17 -2 13 -5z m190 0
c-3 -3 -12 -4 -19 -1 -8 3 -5 6 6 6 11 1 17 -2 13 -5z m58 -12 c-3 -3 -11 0
-18 7 -9 10 -8 11 6 5 10 -3 15 -9 12 -12z m1218 11 c-7 -2 -19 -2 -25 0 -7 3
-2 5 12 5 14 0 19 -2 13 -5z m174 1 c-3 -3 -12 -4 -19 -1 -8 3 -5 6 6 6 11 1
17 -2 13 -5z m1316 -34 c8 -29 0 -24 -19 13 -14 27 -15 30 -2 19 9 -7 18 -22
21 -32z m2522 30 c-3 -5 -12 -10 -18 -10 -7 0 -6 4 3 10 19 12 23 12 15 0z
m42 4 c-3 -3 -12 -4 -19 -1 -8 3 -5 6 6 6 11 1 17 -2 13 -5z m170 0 c-3 -3
-12 -4 -19 -1 -8 3 -5 6 6 6 11 1 17 -2 13 -5z m1270 0 c-3 -3 -12 -4 -19 -1
-8 3 -5 6 6 6 11 1 17 -2 13 -5z m-14137 -8 c0 -2 -19 -15 -42 -29 -173 -101
-301 -306 -328 -524 -44 -354 207 -701 555 -769 168 -32 354 15 449 115 46 48
56 41 56 -36 -1 -157 -42 -282 -117 -356 -37 -38 -110 -83 -119 -74 -3 3 15
15 40 27 25 12 64 42 86 67 60 68 82 137 88 273 l5 115 -43 -39 c-24 -21 -70
-51 -104 -66 -163 -74 -347 -66 -525 22 -121 59 -249 187 -309 308 -58 117
-76 192 -76 325 -1 135 20 223 78 335 47 91 106 166 184 230 55 47 122 88 122
76z m7086 -5 c-6 -9 -46 -22 -46 -15 0 3 10 9 23 14 29 11 29 11 23 1z
m-10220 -14 c-157 -99 -259 -227 -313 -392 -22 -69 -26 -98 -27 -210 -1 -96 4
-147 17 -195 39 -142 131 -282 243 -369 194 -152 468 -191 706 -101 170 64
324 217 394 393 14 34 22 49 19 32 -11 -53 -73 -168 -124 -231 -271 -332 -811
-341 -1100 -18 -57 65 -115 169 -143 258 -25 79 -35 260 -19 352 24 137 101
284 197 375 56 53 144 119 159 118 6 0 2 -6 -9 -12z m8242 -33 c-3 -14 -5 -12
-10 9 -3 19 -2 25 4 19 6 -6 8 -18 6 -28z m8692 28 c0 -5 -16 -16 -35 -25 -44
-21 -45 -15 -2 12 37 24 37 24 37 13z m-19183 -24 c-3 -8 -6 -5 -6 6 -1 11 2
17 5 13 3 -3 4 -12 1 -19z m13548 -1808 l115 0 3 303 2 302 3 -307 2 -308
-125 0 -125 0 2 923 3 922 2 -917 3 -918 115 0z m172 1725 c49 49 148 113 158
103 2 -2 -21 -16 -51 -32 -30 -16 -79 -55 -109 -87 -29 -33 -56 -59 -59 -59
-4 0 -5 42 -4 93 l2 92 3 -83 4 -83 56 56z m3418 -1165 l115 0 3 638 2 637 3
-642 2 -643 -125 0 -125 0 2 643 3 642 2 -637 3 -638 115 0z m490 0 l114 0 3
408 3 407 32 67 c39 82 108 159 171 189 36 17 66 23 127 23 116 1 169 -17 232
-79 86 -87 87 -89 91 -587 l3 -428 114 0 115 0 3 428 2 427 3 -432 2 -433
-124 0 -125 0 -3 428 c-4 477 -6 491 -74 570 -45 53 -93 78 -174 91 -171 28
-315 -70 -372 -252 -16 -53 -18 -99 -18 -448 l0 -389 -125 0 -125 0 2 643 3
642 2 -637 3 -638 115 0z m143 1135 c13 19 40 46 60 61 37 27 37 27 -4 -12
-22 -22 -49 -51 -58 -66 -10 -16 -22 -28 -27 -28 -5 0 -8 42 -7 93 l2 92 5
-87 6 -88 23 35z m181 131 c-2 -2 -15 -9 -29 -15 -24 -11 -24 -11 -6 3 16 13
49 24 35 12z m-9858 -33 c13 -16 12 -17 -3 -4 -10 7 -18 15 -18 17 0 8 8 3 21
-13z m4269 14 c0 -2 -22 -18 -49 -36 -81 -52 -167 -155 -217 -256 -138 -286
-77 -636 148 -839 178 -161 475 -201 703 -93 96 46 204 148 242 228 16 32 32
58 37 58 29 2 -61 -134 -136 -203 -114 -106 -251 -156 -425 -156 -195 1 -331
55 -458 184 -124 125 -179 254 -191 446 -18 267 93 505 298 642 40 27 48 31
48 25z m-1371 -11 c-2 -2 -28 -22 -57 -44 -167 -125 -262 -330 -262 -564 0
-122 21 -215 69 -313 67 -134 161 -230 286 -289 98 -47 163 -60 290 -60 189 1
309 48 430 169 39 38 82 95 98 125 15 30 27 48 27 40 0 -31 -65 -127 -126
-186 -109 -108 -257 -164 -434 -164 -294 0 -523 162 -616 435 -35 104 -45 298
-20 415 32 153 131 309 249 396 32 24 62 44 65 44 3 0 3 -2 1 -4z m4564 -36
c8 -29 0 -24 -19 13 -14 27 -15 30 -2 19 9 -7 18 -22 21 -32z m2337 36 c0 -3
-4 -8 -10 -11 -5 -3 -10 -1 -10 4 0 6 5 11 10 11 6 0 10 -2 10 -4z m564 -12
c5 -14 4 -15 -9 -4 -17 14 -19 20 -6 20 5 0 12 -7 15 -16z m1256 6 c0 -5 -2
-10 -4 -10 -3 0 -8 5 -11 10 -3 6 -1 10 4 10 6 0 11 -4 11 -10z m-610 -4 c0
-3 -4 -8 -10 -11 -5 -3 -10 -1 -10 4 0 6 5 11 10 11 6 0 10 -2 10 -4z m-19113
-28 c-3 -8 -6 -5 -6 6 -1 11 2 17 5 13 3 -3 4 -12 1 -19z m10517 6 c3 -8 2
-12 -4 -9 -6 3 -10 10 -10 16 0 14 7 11 14 -7z m9241 -4 c10 -11 16 -20 13
-20 -3 0 -13 9 -23 20 -10 11 -16 20 -13 20 3 0 13 -9 23 -20z m-1185 -94 c0
-12 -2 -9 -54 59 l-38 50 46 -50 c25 -27 46 -54 46 -59z m-4045 24 l49 -55
-62 60 c-34 33 -62 61 -62 63 0 9 31 -19 75 -68z m-1430 14 c41 -43 50 -54 42
-54 -1 0 -25 23 -52 50 -27 28 -46 50 -42 50 4 0 27 -21 52 -46z m-8394 3 l11
-22 -21 22 c-22 23 -28 39 -11 28 5 -3 15 -16 21 -28z m5822 13 c3 -11 1 -18
-4 -14 -5 3 -9 12 -9 20 0 20 7 17 13 -6z m9317 -47 c0 -10 -21 10 -41 40
l-21 32 31 -34 c17 -18 31 -36 31 -38z m-8094 25 l29 -33 -32 29 c-31 28 -38
36 -30 36 2 0 16 -15 33 -32z m3857 -8 c8 -29 0 -24 -19 13 -14 27 -15 30 -2
19 9 -7 18 -22 21 -32z m-15616 -7 c-3 -10 -5 -4 -5 12 0 17 2 24 5 18 2 -7 2
-21 0 -30z m1291 30 l-508 -3 0 -145 0 -145 361 0 361 0 -7 -47 c-11 -78 -58
-205 -99 -267 -39 -58 -120 -134 -179 -169 l-32 -19 35 28 c82 67 136 123 172
178 37 58 79 173 91 249 l6 37 -360 0 -359 0 0 155 0 155 513 -2 512 -3 -507
-2z m6913 -10 c13 -16 12 -17 -3 -4 -10 7 -18 15 -18 17 0 8 8 3 21 -13z
m-6404 -25 c-3 -8 -6 -5 -6 6 -1 11 2 17 5 13 3 -3 4 -12 1 -19z m8740 -20
c-3 -7 -5 -2 -5 12 0 14 2 19 5 13 2 -7 2 -19 0 -25z m-2297 2 c0 -5 -2 -10
-4 -10 -3 0 -8 5 -11 10 -3 6 -1 10 4 10 6 0 11 -4 11 -10z m-5545 -11 c157
-29 278 -144 320 -304 28 -109 14 -239 -36 -337 -26 -51 -97 -127 -141 -151
l-33 -18 30 22 c96 73 157 174 177 295 31 182 -64 370 -227 450 -54 26 -70 29
-160 29 -93 0 -105 -2 -165 -32 -76 -37 -137 -96 -179 -173 -17 -30 -31 -51
-31 -46 0 24 68 131 107 167 49 45 129 85 195 98 61 12 77 12 143 0z m1557 0
c153 -33 273 -148 314 -304 28 -104 13 -239 -38 -339 -28 -55 -105 -134 -153
-157 -22 -11 -31 -14 -21 -7 99 66 161 142 191 233 38 115 28 252 -26 357 -31
61 -120 145 -186 176 -51 24 -70 27 -158 27 -87 0 -107 -3 -157 -27 -108 -50
-184 -141 -220 -262 -14 -47 -17 -52 -13 -21 9 67 70 179 123 226 71 63 171
104 264 108 15 1 51 -4 80 -10z m1579 -9 c155 -49 258 -190 275 -377 14 -160
-66 -343 -177 -407 -26 -15 -21 -7 23 32 31 29 68 72 81 95 82 139 78 351 -7
485 -185 290 -596 202 -680 -146 -8 -31 -15 -47 -15 -34 -1 12 8 50 19 83 74
219 278 333 481 269z m2052 -14 c68 -33 147 -126 107 -126 -5 0 -10 6 -10 14
0 20 -82 92 -127 112 -24 11 -66 17 -118 18 -67 1 -89 -3 -137 -26 -115 -54
-188 -139 -220 -256 -15 -54 -17 -58 -13 -22 12 89 78 195 158 252 105 75 249
89 360 34z m3580 8 c94 -32 197 -155 213 -252 l7 -42 -372 0 c-424 0 -392 -9
-342 96 51 108 134 181 240 211 58 16 189 10 254 -13z m347 4 c0 -6 -6 -5 -15
2 -8 7 -15 14 -15 16 0 2 7 1 15 -2 8 -4 15 -11 15 -16z m946 11 c113 -21 195
-84 249 -193 14 -27 25 -65 25 -83 l0 -33 -367 2 -368 3 2 23 c5 43 57 135
104 183 92 95 204 126 355 98z m1487 -27 c119 -55 204 -165 232 -299 38 -177
0 -343 -102 -454 -53 -56 -138 -117 -149 -107 -3 3 10 13 29 21 82 39 168 143
203 247 25 74 26 241 1 322 -37 123 -157 247 -270 280 -68 20 -183 15 -250
-11 -116 -45 -218 -172 -246 -306 l-10 -50 4 50 c7 75 65 184 128 241 86 78
160 104 282 100 66 -2 93 -8 148 -34z m1410 -2 c8 -29 0 -24 -19 13 -14 27
-15 30 -2 19 9 -7 18 -22 21 -32z m3969 6 c157 -74 250 -239 246 -436 l-1 -65
-7 85 c-5 47 -13 106 -20 130 -30 115 -117 223 -215 269 -275 129 -567 -88
-565 -418 1 -51 4 -75 24 -166 5 -22 2 -19 -9 10 -36 92 -28 274 16 375 48
108 148 200 254 234 77 24 205 16 277 -18z m-1003 -41 c12 -31 23 -81 26 -113
5 -59 2 -54 -16 37 -6 30 -20 74 -30 98 -10 24 -15 41 -10 38 6 -3 19 -30 30
-60z m-5441 34 c19 -30 8 -34 -12 -4 -9 14 -13 25 -9 25 5 0 14 -9 21 -21z
m-11371 -146 c-2 -32 -3 -8 -3 52 0 61 1 87 3 58 2 -29 2 -78 0 -110z m8740
90 c-2 -16 -4 -5 -4 22 0 28 2 40 4 28 2 -13 2 -35 0 -50z m4054 50 c13 -16
12 -17 -3 -4 -10 7 -18 15 -18 17 0 8 8 3 21 -13z m-6312 -37 c-3 -3 -11 5
-18 17 -13 21 -12 21 5 5 10 -10 16 -20 13 -22z m3576 -36 c9 -32 2 -25 -20
20 -13 27 -14 32 -2 20 8 -8 18 -26 22 -40z m3828 10 c8 -29 0 -24 -19 13 -14
27 -15 30 -2 19 9 -7 18 -22 21 -32z m-2473 -14 c0 -12 -5 -7 -19 24 -11 24
-11 24 3 6 9 -11 16 -24 16 -30z m-13223 -18 c-3 -7 -5 -2 -5 12 0 14 2 19 5
13 2 -7 2 -19 0 -25z m8321 -9 c-3 -8 -7 -3 -11 10 -4 17 -3 21 5 13 5 -5 8
-16 6 -23z m7415 -29 c8 -29 0 -24 -19 13 -14 27 -15 30 -2 19 9 -7 18 -22 21
-32z m-7773 10 c-8 -5 -19 -10 -25 -10 -5 0 -3 5 5 10 8 5 20 10 25 10 6 0 3
-5 -5 -10z m6739 -75 c0 -13 -5 -8 -14 15 -18 46 -18 61 0 30 8 -14 14 -34 14
-45z m-6799 51 c0 -2 -9 -6 -20 -9 -11 -3 -18 -1 -14 4 5 9 34 13 34 5z m-60
-26 c-8 -5 -19 -10 -25 -10 -5 0 -3 5 5 10 8 5 20 10 25 10 6 0 3 -5 -5 -10z
m7940 -41 c0 -18 -10 -8 -25 24 l-16 32 21 -24 c11 -13 20 -27 20 -32z m-2523
19 c-3 -8 -6 -5 -6 6 -1 11 2 17 5 13 3 -3 4 -12 1 -19z m-2710 -55 c-2 -16
-4 -5 -4 22 0 28 2 40 4 28 2 -13 2 -35 0 -50z m1360 45 c-3 -8 -6 -5 -6 6 -1
11 2 17 5 13 3 -3 4 -12 1 -19z m-4127 8 c0 -2 -9 -6 -20 -9 -11 -3 -18 -1
-14 4 5 9 34 13 34 5z m578 -22 c-3 -2 -216 -91 -474 -198 -400 -166 -498
-204 -473 -182 2 1 214 90 472 196 257 106 467 198 468 204 0 6 3 5 6 -2 3 -7
3 -15 1 -18z m-638 -4 c-20 -13 -33 -13 -25 0 3 6 14 10 23 10 15 0 15 -2 2
-10z m5547 -22 c-3 -7 -5 -2 -5 12 0 14 2 19 5 13 2 -7 2 -19 0 -25z m-11466
-10 c-3 -21 -6 -26 -9 -15 -3 17 3 47 11 47 2 0 1 -15 -2 -32z m12923 -153 c1
-149 -8 -206 -51 -309 -78 -188 -257 -341 -441 -377 -38 -7 -100 -10 -155 -6
-148 9 -262 61 -354 160 l-42 45 -4 -41 c-3 -39 -4 -38 -5 11 -1 28 0 52 4 52
3 0 30 -27 61 -60 65 -71 161 -123 268 -145 88 -19 142 -18 230 0 115 24 189
67 285 164 141 143 194 271 194 476 1 66 -2 143 -6 170 -6 41 -5 46 4 25 6
-14 12 -86 12 -165z m-2807 143 c-3 -7 -5 -2 -5 12 0 14 2 19 5 13 2 -7 2 -19
0 -25z m3903 -19 c0 -18 -10 -8 -25 24 l-16 32 21 -24 c11 -13 20 -27 20 -32z
m-12487 21 c3 -11 1 -18 -4 -14 -5 3 -9 12 -9 20 0 20 7 17 13 -6z m4267 -10
c-8 -5 -19 -10 -25 -10 -5 0 -3 5 5 10 8 5 20 10 25 10 6 0 3 -5 -5 -10z
m5677 -37 c-3 -10 -5 -2 -5 17 0 19 2 27 5 18 2 -10 2 -26 0 -35z m-11040 5
c-3 -7 -5 -2 -5 12 0 14 2 19 5 13 2 -7 2 -19 0 -25z m9690 -65 c-2 -16 -4 -3
-4 27 0 30 2 43 4 28 2 -16 2 -40 0 -55z m-10140 45 c-3 -8 -6 -5 -6 6 -1 11
2 17 5 13 3 -3 4 -12 1 -19z m3100 -115 c-2 -27 -3 -5 -3 47 0 52 1 74 3 48 2
-27 2 -69 0 -95z m-1550 5 c-2 -24 -4 -5 -4 42 0 47 2 66 4 43 2 -24 2 -62 0
-85z m4143 112 c-20 -13 -33 -13 -25 0 3 6 14 10 23 10 15 0 15 -2 2 -10z
m-5253 -92 c-2 -18 -4 -6 -4 27 0 33 2 48 4 33 2 -15 2 -42 0 -60z m1550 5
c-2 -16 -4 -5 -4 22 0 28 2 40 4 28 2 -13 2 -35 0 -50z m-2000 35 c-3 -8 -6
-5 -6 6 -1 11 2 17 5 13 3 -3 4 -12 1 -19z m11513 -38 l0 -60 -506 0 -506 0 4
-25 c3 -13 1 -22 -3 -19 -5 3 -9 16 -9 30 l0 24 505 0 505 0 0 55 c0 30 2 55
5 55 3 0 5 -27 5 -60z m387 -37 c-2 -21 -4 -6 -4 32 0 39 2 55 4 38 2 -18 2
-50 0 -70z m-1747 -3 c0 -20 -7 -20 -499 -20 l-500 0 -4 -32 c-4 -32 -4 -32
-5 5 l-2 37 500 0 c438 0 500 2 500 15 0 8 2 15 5 15 3 0 5 -9 5 -20z m-6588
-15 c3 -13 1 -22 -3 -19 -9 5 -13 44 -5 44 2 0 6 -11 8 -25z m-2010 -52 c-3
-16 -7 -22 -10 -15 -4 13 4 42 11 42 2 0 2 -12 -1 -27z m16513 -67 c-16 -55
-79 -161 -112 -187 -9 -8 1 11 23 41 23 30 46 65 53 78 17 31 40 111 42 142 2
22 2 23 6 3 2 -11 -3 -46 -12 -77z m-6158 52 c-3 -7 -5 -2 -5 12 0 14 2 19 5
13 2 -7 2 -19 0 -25z m-1389 -53 c0 -16 -2 -15 -8 5 -11 34 -11 60 0 35 5 -11
8 -29 8 -40z m-8981 13 c-3 -8 -6 -5 -6 6 -1 11 2 17 5 13 3 -3 4 -12 1 -19z
m7620 0 c-3 -8 -6 -5 -6 6 -1 11 2 17 5 13 3 -3 4 -12 1 -19z m2782 -58 c0 -8
-7 1 -14 20 -18 46 -17 64 0 25 8 -16 14 -37 14 -45z m-1390 -27 c12 -24 19
-43 16 -43 -5 0 -45 75 -45 86 0 11 6 2 29 -43z m-4249 -3 c-34 -43 -91 -91
-130 -109 -21 -10 -22 -10 -5 1 11 7 49 43 85 79 73 75 98 89 50 29z m2898 0
c6 -16 9 -30 7 -30 -5 0 -35 56 -35 65 0 15 19 -8 28 -35z m8131 10 c11 -24
11 -24 -3 -6 -9 11 -16 24 -16 30 0 12 5 7 19 -24z m-11659 0 c0 -5 -2 -10 -4
-10 -3 0 -8 5 -11 10 -3 6 -1 10 4 10 6 0 11 -4 11 -10z m5596 -12 c4 -7 4
-10 -1 -6 -4 4 -24 -19 -45 -51 -21 -32 -53 -70 -71 -83 -63 -47 -64 -42 -3
14 33 31 69 75 79 97 19 43 29 50 41 29z m702 -24 c-4 -3 -12 5 -18 18 -12 22
-12 22 6 6 10 -10 15 -20 12 -24z m-2064 18 c-5 -4 -20 -24 -33 -44 -26 -44
-112 -123 -141 -131 -11 -3 -18 -1 -14 4 3 5 11 9 19 9 21 0 119 100 136 138
7 17 21 32 29 32 9 0 11 -3 4 -8z m-4204 -24 c0 -6 -6 -5 -15 2 -8 7 -15 14
-15 16 0 2 7 1 15 -2 8 -4 15 -11 15 -16z m11760 -117 c0 -9 -101 94 -112 114
-6 11 16 -9 50 -45 34 -36 62 -67 62 -69z m-18060 114 c0 -8 -82 -47 -87 -41
-3 2 15 13 39 24 52 24 48 23 48 17z m9834 -21 c5 -14 4 -15 -9 -4 -17 14 -19
20 -6 20 5 0 12 -7 15 -16z m2756 6 c0 -5 -2 -10 -4 -10 -3 0 -8 5 -11 10 -3
6 -1 10 4 10 6 0 11 -4 11 -10z m-1371 -41 c23 -23 40 -43 38 -45 -2 -2 -23
17 -47 41 -55 56 -48 59 9 4z m-11334 1 c-27 -12 -43 -12 -25 0 8 5 22 9 30 9
10 0 8 -3 -5 -9z m12740 -10 c10 -11 16 -20 13 -20 -3 0 -13 9 -23 20 -10 11
-16 20 -13 20 3 0 13 -9 23 -20z m-7920 -20 c-3 -5 -11 -10 -16 -10 -6 0 -7 5
-4 10 3 6 11 10 16 10 6 0 7 -4 4 -10z m4010 0 c-27 -12 -43 -12 -25 0 8 5 22
9 30 9 10 0 8 -3 -5 -9z m-8972 -7 c-7 -2 -19 -2 -25 0 -7 3 -2 5 12 5 14 0
19 -2 13 -5z m18787 3 c0 -2 -8 -10 -17 -17 -16 -13 -17 -12 -4 4 13 16 21 21
21 13z m-18897 -13 c-13 -2 -35 -2 -50 0 -16 2 -5 4 22 4 28 0 40 -2 28 -4z
m1912 -3 c-3 -5 -12 -10 -18 -10 -7 0 -6 4 3 10 19 12 23 12 15 0z m5140 0
c-3 -5 -12 -10 -18 -10 -7 0 -6 4 3 10 19 12 23 12 15 0z m1950 0 c-3 -5 -12
-10 -18 -10 -7 0 -6 4 3 10 19 12 23 12 15 0z m1285 0 c0 -5 -2 -10 -4 -10 -3
0 -8 5 -11 10 -3 6 -1 10 4 10 6 0 11 -4 11 -10z m-8469 -18 c-24 -2 -47 0
-52 5 -4 4 15 6 44 3 l52 -5 -44 -3z m1550 0 c-24 -2 -47 0 -52 5 -4 4 15 6
44 3 l52 -5 -44 -3z m1572 1 c-13 -2 -35 -2 -50 0 -16 2 -5 4 22 4 28 0 40 -2
28 -4z m2030 0 c-13 -2 -35 -2 -50 0 -16 2 -5 4 22 4 28 0 40 -2 28 -4z m1974
1 c-3 -3 -12 -4 -19 -1 -8 3 -5 6 6 6 11 1 17 -2 13 -5z m9513 -4 c0 -5 -2
-10 -4 -10 -3 0 -8 5 -11 10 -3 6 -1 10 4 10 6 0 11 -4 11 -10z m-6465 -40
c-3 -5 -12 -10 -18 -10 -7 0 -6 4 3 10 19 12 23 12 15 0z m-1400 -10 c-3 -5
-18 -9 -33 -9 l-27 1 30 8 c17 4 31 8 33 9 2 0 0 -3 -3 -9z m2730 0 c-3 -5
-27 -9 -53 -8 l-47 1 50 7 c28 4 51 8 53 8 2 1 0 -2 -3 -8z m5380 0 c-3 -5
-30 -9 -58 -8 l-52 1 55 7 c30 4 56 7 58 8 2 1 0 -2 -3 -8z m-8212 -7 c-7 -2
-19 -2 -25 0 -7 3 -2 5 12 5 14 0 19 -2 13 -5z m1350 0 c-7 -2 -19 -2 -25 0
-7 3 -2 5 12 5 14 0 19 -2 13 -5z m90 0 c-7 -2 -21 -2 -30 0 -10 3 -4 5 12 5
17 0 24 -2 18 -5z m-6376 -260 c-3 -10 -5 -2 -5 17 0 19 2 27 5 18 2 -10 2
-26 0 -35z m-22 -124 c-34 -132 -109 -254 -206 -335 -165 -138 -450 -180 -680
-100 -143 50 -292 179 -360 312 -33 64 -34 65 -15 80 11 8 25 14 30 13 6 0 1
-5 -12 -11 -26 -13 -25 -20 21 -97 42 -71 158 -188 229 -229 102 -60 189 -85
318 -90 213 -8 382 50 505 173 75 75 145 206 166 311 7 38 15 62 17 53 2 -10
-4 -46 -13 -80z m-1005 61 c0 -5 -5 -10 -11 -10 -5 0 -7 5 -4 10 3 6 8 10 11
10 2 0 4 -4 4 -10z m-110 -50 c-20 -13 -33 -13 -25 0 3 6 14 10 23 10 15 0 15
-2 2 -10z m-60 -24 c0 -2 -9 -6 -20 -9 -11 -3 -18 -1 -14 4 5 9 34 13 34 5z
m276 -57 c19 -22 19 -22 -3 -8 -13 8 -23 17 -23 21 0 12 6 9 26 -13z m-10442
-65 c3 -8 2 -12 -4 -9 -6 3 -10 10 -10 16 0 14 7 11 14 -7z m10793 -50 c-3 -3
-12 -4 -19 -1 -8 3 -5 6 6 6 11 1 17 -2 13 -5z"/>
<path d="M16739 2190 c-101 -17 -208 -101 -259 -203 -16 -33 -30 -66 -30 -74
0 -11 66 -13 361 -13 l361 0 -7 33 c-20 94 -113 200 -206 234 -65 24 -157 34
-220 23z"/>
<path d="M18099 2190 c-115 -20 -212 -97 -268 -212 -17 -36 -31 -69 -31 -72 0
-3 162 -6 360 -6 355 0 360 0 360 20 0 59 -78 174 -148 218 -72 46 -183 67
-273 52z"/>
</g>
</svg>
