<?xml version="1.0" standalone="no"?>
<!DOCTYPE svg PUBLIC "-//W3C//DTD SVG 20010904//EN"
 "http://www.w3.org/TR/2001/REC-SVG-20010904/DTD/svg10.dtd">
<svg version="1.0" xmlns="http://www.w3.org/2000/svg"
 width="3353.000000pt" height="1015.000000pt" viewBox="0 0 3353.000000 1015.000000"
 preserveAspectRatio="xMidYMid meet">
<metadata>
Created by potrace 1.16, written by Peter Selinger 2001-2019
</metadata>
<g transform="translate(0.000000,1015.000000) scale(0.100000,-0.100000)"
fill="#000000" stroke="none">
<path d="M4767 9674 c-1 -1 -76 -4 -167 -7 -510 -19 -1043 -134 -1550 -334
-1529 -604 -2664 -1980 -2964 -3593 -57 -307 -79 -548 -80 -880 -1 -504 51
-889 186 -1358 183 -640 493 -1225 932 -1757 119 -144 461 -488 601 -604 707
-586 1523 -952 2405 -1080 262 -38 380 -46 710 -46 338 0 435 7 727 51 871
130 1672 492 2373 1072 151 125 481 456 606 607 667 808 1039 1741 1113 2795
13 176 5 564 -14 765 -161 1681 -1185 3150 -2710 3890 -588 285 -1304 462
-1915 474 -63 1 -146 3 -183 4 -38 1 -69 1 -70 1z m-3456 -1974 c52 -15 140
-38 195 -49 147 -32 182 -45 380 -147 209 -106 291 -135 613 -211 287 -67 414
-103 540 -149 115 -43 306 -135 415 -200 l79 -47 201 -1 c175 -2 211 -5 276
-25 94 -28 211 -86 285 -142 l57 -43 42 22 c23 13 65 43 94 68 46 40 50 47 42
70 -6 14 -10 38 -10 54 0 17 -9 38 -22 49 -14 13 -29 53 -44 113 -31 124 -31
144 6 178 29 27 30 31 30 117 0 116 20 182 72 239 75 82 222 128 338 106 88
-16 174 -58 219 -107 51 -56 71 -122 71 -240 0 -90 0 -92 30 -113 22 -16 30
-31 30 -52 0 -50 -49 -224 -67 -238 -24 -18 -47 -131 -30 -150 15 -19 147
-112 158 -112 5 0 39 21 75 46 183 124 374 173 625 160 l127 -7 54 35 c78 49
284 151 387 191 138 53 295 98 601 170 347 82 406 102 635 216 168 84 190 92
324 120 79 17 188 44 242 60 54 16 103 29 109 29 6 0 15 -12 20 -26 23 -59
-51 -134 -176 -179 -63 -23 -131 -63 -154 -90 -8 -9 4 -13 52 -17 80 -7 113
-23 129 -61 10 -24 10 -34 -2 -56 -24 -43 -73 -61 -171 -61 l-86 0 -53 -45
c-65 -55 -116 -73 -254 -87 l-110 -11 -90 -66 c-266 -192 -587 -377 -748 -429
l-57 -19 162 -6 c148 -5 264 -17 593 -62 140 -19 400 -19 530 0 128 19 236 19
350 0 50 -8 133 -17 185 -20 52 -3 114 -8 138 -11 40 -5 42 -7 42 -38 0 -21
-8 -40 -22 -53 -47 -43 -90 -56 -203 -64 -60 -4 -127 -13 -147 -20 l-38 -12
58 -29 c98 -49 124 -97 81 -152 -28 -36 -84 -35 -187 4 l-80 31 -63 -22 c-85
-30 -162 -28 -276 9 l-88 28 -85 -23 c-142 -40 -408 -100 -545 -124 -101 -18
-169 -23 -305 -23 -158 -1 -188 2 -301 28 l-126 28 -104 -23 c-134 -29 -274
-29 -416 0 -125 26 -136 26 -188 0 l-43 -21 -46 -183 c-61 -241 -87 -315 -139
-394 -41 -64 -42 -67 -41 -146 1 -44 9 -132 19 -195 18 -121 15 -195 -11 -292
-7 -29 -14 -84 -14 -121 0 -116 23 -188 122 -377 285 -548 304 -591 401 -915
71 -235 113 -340 206 -509 59 -109 94 -158 158 -227 221 -239 332 -470 457
-950 70 -271 86 -316 142 -406 42 -67 49 -74 97 -88 29 -9 106 -19 172 -22 97
-4 133 -2 185 12 112 31 134 31 159 0 39 -51 17 -133 -45 -165 -16 -8 -54 -40
-84 -70 -75 -75 -206 -152 -269 -158 -42 -4 -50 -8 -66 -38 -22 -41 -135 -101
-405 -217 -346 -148 -646 -239 -1090 -328 -334 -68 -1054 -78 -1450 -19 -356
52 -835 187 -1174 332 -78 32 -214 95 -304 139 -131 64 -167 86 -185 114 -17
26 -31 36 -62 41 -22 3 -53 13 -70 22 -62 32 -201 131 -232 166 -17 20 -38 36
-45 36 -8 0 -27 13 -42 28 -49 52 -44 140 9 164 22 10 39 8 103 -12 129 -39
377 -38 443 3 28 17 103 151 127 227 12 36 44 153 72 260 69 262 110 380 185
535 81 167 146 264 247 370 92 98 136 161 218 319 75 142 106 221 175 447 79
256 196 535 279 668 14 21 66 120 116 220 50 100 94 179 99 177 14 -9 45 147
45 224 -1 41 -8 103 -17 136 -21 77 -22 209 -2 329 8 50 15 119 15 155 0 61
-3 71 -44 133 -52 80 -80 158 -141 401 -25 98 -50 184 -55 191 -6 7 -26 20
-44 29 -32 15 -41 15 -132 -6 -145 -31 -346 -31 -470 0 l-91 23 -86 -20 c-129
-31 -260 -44 -357 -36 -172 14 -579 98 -841 173 l-65 20 -85 -29 c-105 -36
-207 -39 -291 -9 l-57 20 -81 -30 c-125 -46 -190 -37 -205 29 -10 47 16 83 87
121 l62 33 -49 18 c-32 11 -82 18 -136 18 -139 1 -225 45 -217 110 3 25 7 26
88 34 47 4 144 14 215 23 208 26 251 27 418 5 220 -29 366 -27 653 9 267 33
439 50 529 50 l60 1 -71 28 c-159 63 -427 223 -680 407 l-101 73 -104 10
c-149 15 -197 32 -267 95 -36 32 -41 34 -137 38 -114 5 -148 18 -166 60 -26
62 29 118 116 118 22 0 46 4 53 9 20 12 -53 67 -129 96 -73 29 -154 79 -174
108 -28 40 -11 115 23 102 9 -3 60 -19 113 -35z"/>
<path d="M29562 8943 c-47 -103 -234 -504 -285 -613 -19 -41 -140 -302 -270
-580 -255 -549 -520 -1119 -682 -1465 -97 -207 -182 -392 -609 -1309 -97 -208
-175 -380 -173 -383 8 -7 670 -4 677 4 3 4 50 103 102 218 53 116 151 329 218
475 67 146 126 275 131 288 l9 22 896 -2 897 -3 164 -380 c90 -209 187 -435
216 -502 l52 -123 310 -1 c171 -1 322 -2 338 -3 55 -4 69 -44 -202 559 -33 72
-97 216 -144 320 -47 105 -158 352 -247 550 -89 198 -200 443 -245 545 -231
516 -326 727 -594 1325 -161 358 -320 711 -353 785 -106 235 -160 355 -163
358 -1 1 -20 -37 -43 -85z m342 -2041 c168 -386 306 -704 306 -707 0 -3 -284
-5 -631 -5 -597 0 -631 1 -626 18 3 9 95 213 204 452 110 239 253 551 318 693
65 142 119 256 120 255 2 -2 140 -319 309 -706z"/>
<path d="M32292 6680 l3 -2091 298 1 c163 0 304 0 312 0 13 0 15 239 15 2090
l0 2090 -315 0 -315 0 2 -2090z"/>
<path d="M19425 8748 c-954 -96 -1684 -805 -1826 -1772 -25 -173 -27 -456 -4
-633 64 -486 288 -931 633 -1255 299 -281 688 -464 1107 -521 161 -22 520 -16
680 12 218 37 377 88 560 177 196 95 353 206 562 397 l123 112 -192 192 -192
192 -55 -50 c-331 -294 -584 -431 -891 -483 -510 -86 -967 56 -1306 406 -293
302 -443 686 -444 1137 -1 564 250 1047 691 1334 175 114 403 194 604 212 39
3 90 8 115 11 63 7 266 -13 376 -36 267 -55 507 -181 768 -401 l108 -91 39 38
c21 22 108 118 193 214 l155 175 -27 29 c-45 48 -240 204 -331 265 -260 175
-552 284 -871 326 -147 19 -447 26 -575 13z"/>
<path d="M11720 8715 c-476 -64 -867 -249 -1194 -565 -177 -171 -306 -347
-411 -564 -289 -592 -288 -1294 1 -1883 298 -607 859 -1003 1568 -1108 144
-21 464 -21 618 1 465 63 879 266 1200 586 616 615 775 1603 388 2407 -108
224 -235 396 -423 577 -292 281 -662 464 -1081 535 -160 27 -513 35 -666 14z
m490 -516 c411 -58 765 -283 1002 -633 376 -560 362 -1354 -35 -1892 -116
-158 -328 -339 -494 -423 -287 -144 -623 -192 -948 -135 -729 128 -1243 800
-1219 1595 10 347 115 662 308 924 317 428 842 642 1386 564z"/>
<path d="M14440 6655 l0 -2035 1500 0 1500 0 0 265 0 265 -1207 2 -1208 3 0
625 0 625 1073 3 1072 2 0 260 0 260 -1072 2 -1073 3 0 610 0 610 1198 3 1197
2 0 265 0 265 -1490 0 -1490 0 0 -2035z"/>
<path d="M21460 8688 c0 -2 -1 -918 -3 -2036 l-2 -2033 870 4 c772 3 882 5
975 21 262 44 454 103 665 206 585 285 963 785 1086 1435 31 160 37 465 14
645 -110 865 -733 1522 -1615 1704 -242 50 -323 53 -1187 55 -442 1 -803 0
-803 -1z m1787 -566 c688 -130 1136 -611 1212 -1304 52 -471 -98 -922 -408
-1228 -165 -164 -343 -272 -563 -344 -234 -77 -334 -86 -945 -86 l-503 0 0
1488 c0 819 3 1492 8 1496 4 4 250 6 547 3 495 -4 549 -6 652 -25z"/>
<path d="M26104 5286 c-70 -17 -130 -54 -188 -115 -65 -70 -89 -127 -94 -227
-8 -139 41 -249 143 -326 70 -53 133 -72 235 -72 71 0 95 5 146 28 74 33 151
109 191 186 25 49 28 65 28 155 0 87 -3 107 -27 157 -51 109 -146 188 -257
214 -68 16 -109 16 -177 0z"/>
<path d="M14137 3649 c-137 -23 -179 -209 -66 -290 38 -27 117 -36 159 -19 17
7 43 28 60 46 54 62 52 150 -6 213 -39 44 -88 60 -147 50z"/>
<path d="M12996 3593 c-3 -21 -8 -62 -12 -90 l-6 -53 131 0 c125 0 131 -1 131
-20 0 -19 -139 -1614 -160 -1840 -6 -58 -10 -116 -10 -130 l0 -25 219 0 220 0
6 75 c4 41 7 82 8 90 2 12 -17 16 -105 18 -60 1 -108 6 -108 10 0 8 86 989 95
1082 3 30 12 132 20 225 8 94 24 270 35 392 11 122 20 240 20 263 l0 40 -239
0 -239 0 -6 -37z"/>
<path d="M20155 3618 c-2 -7 -6 -48 -9 -90 l-5 -78 129 0 130 0 0 -29 c0 -16
-4 -73 -10 -127 -5 -55 -28 -315 -50 -579 -51 -609 -77 -888 -95 -1042 -22
-176 -23 -167 34 -192 96 -41 209 -62 366 -68 174 -6 245 6 360 62 220 106
367 332 441 675 25 116 26 385 1 483 -48 191 -141 287 -294 303 -204 22 -405
-123 -539 -386 -15 -30 -44 -102 -65 -160 -39 -108 -47 -113 -29 -19 21 108
54 434 75 729 8 101 32 379 41 468 l7 62 -242 0 c-185 0 -243 -3 -246 -12z
m1016 -916 c41 -46 60 -120 66 -262 14 -334 -101 -643 -287 -773 -84 -59 -172
-81 -289 -74 -53 3 -120 13 -149 22 l-52 16 6 42 c29 208 55 321 110 477 80
232 202 425 329 521 69 52 118 69 184 65 46 -2 59 -8 82 -34z"/>
<path d="M18875 3456 c-196 -45 -361 -143 -484 -286 -183 -212 -281 -512 -281
-860 0 -500 224 -824 620 -900 82 -16 288 -13 377 6 390 80 667 395 749 852
22 125 29 338 15 461 -43 368 -225 615 -526 711 -59 19 -97 23 -240 26 -120 3
-188 -1 -230 -10z m375 -206 c86 -29 138 -61 200 -122 66 -67 112 -150 145
-263 23 -77 28 -115 32 -260 7 -206 -11 -345 -63 -503 -84 -259 -238 -421
-459 -488 -91 -28 -278 -25 -365 5 -183 64 -295 193 -351 406 -27 101 -37 360
-19 500 33 263 135 483 281 606 88 75 168 113 290 139 71 15 237 4 309 -20z"/>
<path d="M10100 3430 c-4 -3 -11 -44 -15 -92 l-7 -88 114 0 114 0 -8 -82 c-4
-46 -21 -236 -37 -423 -71 -810 -91 -1032 -96 -1065 -2 -19 -4 -41 -5 -47 0
-10 -25 -13 -89 -13 l-89 0 -7 -67 c-3 -38 -7 -78 -8 -91 l-2 -22 317 -3 318
-2 4 25 c3 14 8 55 11 93 l7 67 -116 0 -117 0 6 43 c4 36 19 199 41 467 10
130 11 132 45 125 17 -4 90 -7 163 -7 340 2 565 116 674 342 51 108 66 177 65
315 0 296 -149 469 -443 514 -74 12 -824 21 -840 11z m774 -191 c210 -38 309
-191 276 -426 -35 -256 -219 -383 -555 -383 -93 0 -117 3 -121 15 -5 12 9 236
21 330 2 17 6 71 10 120 4 50 8 101 10 115 2 14 7 66 10 115 10 137 -5 125
154 125 75 0 163 -5 195 -11z"/>
<path d="M29013 3282 c-78 -3 -83 -4 -83 -25 0 -25 -16 -213 -26 -294 l-5 -53
-120 0 c-65 0 -119 -3 -119 -7 0 -5 -3 -45 -6 -90 l-6 -83 116 0 c101 0 116
-2 116 -17 0 -9 -18 -215 -41 -457 -55 -593 -50 -666 52 -768 65 -65 125 -82
273 -76 83 4 131 12 191 32 44 14 86 30 92 34 11 7 39 200 30 208 -2 2 -15 -3
-31 -11 -125 -65 -286 -89 -354 -52 -41 22 -71 85 -72 147 0 37 21 294 45 540
12 130 35 392 35 405 0 13 31 15 210 15 160 0 212 3 214 13 3 6 7 47 10 90 l6
77 -210 0 c-161 0 -210 3 -210 13 0 6 7 80 15 162 20 210 21 205 -12 202 -16
-1 -65 -3 -110 -5z"/>
<path d="M12083 2929 c-347 -58 -583 -441 -560 -909 16 -316 153 -527 385
-591 82 -23 231 -25 321 -4 217 51 381 216 467 468 37 109 54 225 54 374 0
205 -34 336 -121 464 -110 162 -315 236 -546 198z m220 -209 c95 -36 168 -129
203 -257 20 -78 20 -301 -1 -412 -51 -265 -167 -408 -358 -441 -147 -26 -282
44 -344 177 -88 189 -62 565 52 760 32 54 104 127 149 150 90 47 210 56 299
23z"/>
<path d="M15165 2934 c-344 -56 -558 -312 -606 -725 -47 -410 117 -727 409
-788 133 -28 332 -6 469 51 80 33 77 27 89 160 l6 77 -78 -33 c-167 -70 -323
-89 -431 -52 -65 22 -146 93 -177 155 -57 112 -77 272 -56 445 43 355 226 547
508 531 108 -6 104 -1 96 -115 -4 -54 -4 -104 -2 -112 4 -10 27 -12 95 -10
l90 3 7 97 c3 53 9 136 12 183 7 99 15 91 -101 115 -72 15 -277 26 -330 18z"/>
<path d="M22195 2930 c-241 -37 -383 -177 -402 -395 -8 -103 14 -170 84 -245
64 -69 147 -115 348 -190 157 -59 182 -71 243 -112 82 -56 104 -150 56 -246
-55 -111 -168 -159 -346 -149 -101 6 -235 35 -247 55 -3 5 -4 58 -1 116 l5
106 -92 0 -92 0 -5 -52 c-4 -29 -11 -111 -16 -183 -9 -114 -8 -131 6 -142 19
-14 156 -51 254 -69 101 -18 317 -17 404 1 249 53 389 233 374 480 -6 87 -32
147 -87 201 -57 56 -105 81 -317 162 -261 101 -303 125 -335 196 -46 102 5
214 119 262 91 38 263 39 384 2 l41 -12 -6 -113 -5 -113 93 0 92 0 7 58 c6 58
18 234 20 286 1 28 -3 31 -59 48 -153 46 -390 68 -520 48z"/>
<path d="M23625 2924 c-137 -28 -235 -84 -338 -194 -82 -86 -142 -188 -183
-310 -45 -134 -58 -234 -51 -414 8 -231 48 -355 149 -463 96 -101 217 -138
433 -130 149 5 234 23 347 74 54 24 57 28 63 67 13 103 21 176 19 176 -1 0
-37 -18 -80 -39 -120 -60 -220 -85 -339 -84 -79 0 -112 5 -160 23 -118 45
-191 154 -202 306 l-6 71 59 7 c93 11 242 43 329 72 298 97 469 249 506 448
26 144 -37 283 -160 349 -97 53 -250 70 -386 41z m223 -193 c93 -48 115 -115
81 -243 -20 -78 -113 -166 -229 -217 -99 -44 -400 -114 -417 -97 -9 8 16 139
39 211 68 206 186 333 338 365 60 12 143 4 188 -19z"/>
<path d="M25187 2930 c-187 -48 -301 -206 -393 -545 -13 -49 -22 -74 -19 -55
10 72 44 398 51 488 l7 92 -215 0 -215 0 -7 -61 c-3 -34 -6 -75 -6 -90 l0 -29
110 0 110 0 0 -34 c0 -109 -72 -942 -100 -1158 -5 -40 -10 -80 -10 -88 0 -12
18 -15 107 -14 l108 1 17 129 c109 826 271 1159 562 1156 39 0 77 -2 85 -4 10
-2 18 23 31 97 10 55 14 104 10 108 -11 13 -190 18 -233 7z"/>
<path d="M27756 2929 c-252 -33 -442 -187 -549 -443 -98 -233 -132 -561 -81
-761 35 -133 106 -234 198 -283 45 -24 62 -27 151 -27 93 0 105 2 166 32 152
75 284 268 384 563 20 58 33 93 31 79 -29 -145 -86 -569 -86 -641 0 -10 45
-12 214 -10 l215 3 5 42 c3 23 7 63 10 90 l6 47 -110 0 c-74 0 -110 4 -110 11
0 6 9 136 20 288 31 419 59 716 84 871 l13 80 -46 0 c-25 0 -70 9 -100 20
-118 45 -264 59 -415 39z m264 -192 l45 -13 -2 -60 c-3 -124 -72 -396 -149
-587 -112 -280 -269 -457 -407 -457 -111 0 -167 96 -172 300 -6 209 31 413
101 558 44 92 142 196 219 231 107 50 253 61 365 28z"/>
<path d="M30201 2925 c-144 -33 -284 -124 -366 -239 -124 -174 -187 -404 -179
-658 9 -315 158 -540 399 -603 76 -19 233 -19 310 0 287 73 471 326 516 707
31 268 -31 514 -164 656 -59 62 -108 93 -193 122 -79 28 -236 35 -323 15z
m265 -218 c83 -42 133 -111 171 -232 27 -88 24 -334 -6 -465 -42 -190 -142
-332 -268 -380 -88 -34 -201 -33 -275 3 -160 79 -223 261 -196 567 24 277 132
458 313 525 65 24 198 15 261 -18z"/>
<path d="M31894 2927 c-68 -18 -137 -59 -191 -116 -58 -60 -143 -233 -182
-371 -35 -123 -36 -120 -16 48 8 70 21 193 28 275 l13 147 -213 0 c-116 0
-214 -3 -216 -7 -3 -5 -8 -45 -11 -90 l-7 -83 110 0 c60 0 112 -3 114 -7 10
-20 -82 -1081 -108 -1253 l-6 -35 110 0 109 0 12 95 c84 700 222 1069 436
1167 49 22 71 26 145 25 l87 0 16 101 c8 56 14 102 12 104 -11 11 -198 11
-242 0z m-407 -629 c-3 -7 -5 -2 -5 12 0 14 2 19 5 13 2 -7 2 -19 0 -25z"/>
<path d="M13787 2903 c-3 -5 -8 -45 -11 -90 l-7 -83 115 0 116 0 -5 -37 c-5
-34 -51 -537 -90 -983 -8 -96 -18 -197 -21 -225 l-5 -50 219 3 220 3 6 47 c3
26 7 65 8 87 l3 40 -109 3 -108 3 6 52 c5 43 33 353 104 1150 l8 87 -222 0
c-123 0 -225 -3 -227 -7z"/>
<path d="M15695 2898 c-2 -7 -6 -48 -10 -90 l-6 -78 109 0 108 0 187 -658
c103 -362 187 -666 187 -674 0 -29 -147 -312 -195 -377 -56 -73 -122 -125
-182 -142 -37 -10 -166 -9 -238 3 -18 3 -21 -5 -28 -81 -5 -57 -4 -88 3 -95 7
-7 69 -11 163 -11 150 0 153 0 220 32 205 98 337 325 692 1198 52 127 146 358
210 515 64 157 118 303 120 325 2 22 7 64 9 93 l5 52 -228 0 -228 0 -7 -61
c-3 -34 -6 -75 -6 -90 l0 -29 120 0 c66 0 120 -2 120 -5 0 -2 -7 -19 -15 -37
-42 -93 -338 -858 -366 -948 l-33 -105 -7 60 c-6 45 -181 756 -290 1178 l-10
37 -200 0 c-151 0 -201 -3 -204 -12z"/>
<path d="M25530 2888 c0 -13 -3 -53 -6 -90 l-7 -67 113 -3 112 -3 -3 -150 c-2
-82 -4 -283 -4 -445 1 -240 4 -312 18 -385 34 -171 103 -277 205 -315 48 -19
72 -21 157 -18 199 9 333 93 462 291 135 207 240 581 283 1007 5 58 12 126 15
153 l5 47 -219 0 c-121 0 -222 -3 -224 -7 -3 -5 -8 -45 -11 -90 l-7 -82 113
-3 113 -3 -3 -45 c-15 -245 -80 -548 -158 -733 -95 -227 -241 -362 -371 -342
-127 19 -160 170 -149 675 3 157 8 294 10 305 2 11 7 89 11 173 l7 152 -231 0
-231 0 0 -22z"/>
<path d="M32176 2878 c-3 -18 -8 -59 -11 -90 l-6 -58 109 0 109 0 188 -662
c104 -364 188 -666 188 -672 -1 -24 -119 -257 -169 -333 -64 -97 -128 -156
-191 -177 -52 -18 -180 -21 -232 -6 -19 5 -37 8 -39 5 -11 -11 -22 -169 -12
-179 6 -6 68 -12 139 -14 194 -6 278 25 393 146 157 165 256 373 703 1477 151
372 168 418 176 495 5 47 9 88 9 93 0 4 -103 7 -229 7 l-228 0 -6 -67 c-12
-125 -25 -113 114 -113 93 0 120 -3 116 -12 -2 -7 -83 -213 -180 -458 -96
-245 -185 -481 -197 -525 -28 -97 -40 -114 -40 -55 0 32 -253 1069 -296 1213
-5 15 -23 17 -204 17 l-199 0 -5 -32z"/>
</g>
</svg>
