<?xml version="1.0" standalone="no"?>
<!DOCTYPE svg PUBLIC "-//W3C//DTD SVG 20010904//EN"
 "http://www.w3.org/TR/2001/REC-SVG-20010904/DTD/svg10.dtd">
<svg version="1.0" xmlns="http://www.w3.org/2000/svg"
 width="5275.000000pt" height="1850.000000pt" viewBox="0 0 5275.000000 1850.000000"
 preserveAspectRatio="xMidYMid meet">
<metadata>
Created by potrace 1.16, written by Peter Selinger 2001-2019
</metadata>
<g transform="translate(0.000000,1850.000000) scale(0.100000,-0.100000)"
fill="#000000" stroke="none">
<path d="M283 12408 c2 -4393 6 -5844 15 -5938 45 -467 73 -671 138 -1000 292
-1474 1000 -2749 2045 -3684 1026 -918 2322 -1474 3774 -1620 407 -41 1009
-46 1385 -11 1518 140 2874 750 3907 1759 l163 159 0 -822 0 -821 1325 0 1325
0 0 8895 0 8895 -1340 0 -1340 0 -3 -5717 c-3 -6258 2 -5733 -57 -6128 -216
-1443 -987 -2626 -2144 -3290 -540 -309 -1151 -493 -1810 -546 -191 -15 -704
-6 -876 15 -326 41 -637 109 -900 196 -1080 359 -1928 1110 -2431 2155 -250
519 -396 1052 -476 1740 -16 141 -18 503 -20 5863 l-3 5712 -1340 0 -1340 0 3
-5812z"/>
<path d="M16330 9325 l0 -8895 1275 0 1275 0 0 811 0 812 133 -129 c743 -723
1710 -1275 2732 -1557 898 -249 1850 -303 2805 -161 1069 159 2096 576 2970
1204 967 696 1740 1650 2223 2745 246 558 414 1146 501 1755 52 365 61 493 61
970 0 455 -6 562 -46 885 -205 1634 -998 3136 -2229 4221 -625 550 -1370 992
-2159 1279 -1044 380 -2204 501 -3303 345 -384 -55 -730 -137 -1113 -265 -319
-106 -506 -184 -830 -345 -600 -298 -1121 -664 -1582 -1114 l-133 -129 0 3232
0 3231 -1290 0 -1290 0 0 -8895z m7470 2031 c481 -57 912 -175 1339 -368 1058
-477 1891 -1358 2316 -2448 137 -352 230 -727 281 -1135 21 -176 30 -659 15
-852 -47 -587 -194 -1129 -445 -1639 -111 -226 -156 -304 -302 -524 -680
-1026 -1754 -1728 -2953 -1930 -315 -53 -724 -73 -1026 -51 -698 51 -1344 246
-1925 581 -1391 802 -2240 2281 -2240 3901 0 1603 828 3062 2198 3872 577 342
1228 546 1932 607 154 13 650 4 810 -14z"/>
<path d="M37630 13644 c-25 -2 -112 -8 -195 -14 -532 -39 -1100 -156 -1622
-334 -1957 -667 -3499 -2240 -4151 -4236 -173 -530 -274 -1037 -324 -1625 -19
-231 -16 -875 5 -1115 52 -573 153 -1080 314 -1575 666 -2051 2283 -3630 4373
-4269 544 -167 1056 -260 1675 -307 207 -16 792 -16 1010 0 972 68 1816 290
2630 691 807 397 1539 969 2142 1671 171 199 313 381 310 396 -2 13 -1837
1372 -1852 1373 -6 0 -34 -32 -63 -70 -302 -404 -742 -821 -1152 -1095 -658
-438 -1350 -667 -2195 -726 -207 -14 -614 -6 -805 16 -1286 148 -2398 826
-3116 1900 -320 478 -571 1097 -677 1668 l-15 77 5270 0 5270 0 -5 678 c-5
705 -9 784 -58 1172 -315 2501 -1871 4518 -4111 5334 -540 196 -1053 310
-1683 371 -149 15 -857 29 -975 19z m505 -2244 c221 -13 381 -33 591 -75 1436
-290 2591 -1372 3039 -2850 31 -103 95 -345 95 -359 0 -3 -1775 -6 -3944 -6
l-3945 0 35 133 c281 1063 898 1947 1753 2511 638 422 1346 638 2141 654 36 1
142 -3 235 -8z"/>
<path d="M51205 13489 c-1084 -77 -1984 -567 -2608 -1422 -47 -65 -103 -145
-124 -179 l-38 -61 -3 786 -2 787 -1275 0 -1275 0 0 -6485 0 -6485 1285 0
1285 0 0 3748 c0 2451 4 3803 10 3907 43 669 219 1251 523 1735 220 351 562
690 899 890 259 155 559 271 849 329 266 54 271 54 997 58 l682 4 0 1200 0
1199 -542 -1 c-299 -1 -597 -6 -663 -10z"/>
</g>
</svg>
